<?xml version="1.0" encoding="UTF-8" standalone="no"?>
<!DOCTYPE svg PUBLIC "-//W3C//DTD SVG 1.1//EN" "http://www.w3.org/Graphics/SVG/1.1/DTD/svg11.dtd">
<svg xmlns="http://www.w3.org/2000/svg" xmlns:xlink="http://www.w3.org/1999/xlink" version="1.1" width="612pt" height="792pt" viewBox="0 0 612 792">
<g enable-background="new">
<clipPath id="cp0">
<path d="M 0 0 L 612 0 L 612 792 L 0 792 Z " fill-rule="evenodd"/>
</clipPath>
<g clip-path="url(#cp0)">
<path transform="matrix(.75,0,0,.75,0,0)" d="M 0 0 L 816 0 L 816 1056 L 0 1056 Z " fill="#ffffff"/>
</g>
<clipPath id="cp1">
<path d="M 0 0 L 612 0 L 612 792 L 0 792 Z " fill-rule="evenodd"/>
</clipPath>
<g clip-path="url(#cp1)">
<path transform="matrix(.75,0,0,.75,72,347.97657)" d="M 0 0 L 500.7422 0 L 500.7422 18.398438 L 0 18.398438 Z " fill="#ffffff"/>
<path transform="matrix(.75,0,0,.75,72,347.97657)" d="M 549.03909 0 L 612.1328 0 L 612.1328 18.398438 L 549.03909 18.398438 Z " fill="#ffffff"/>
<path transform="matrix(.75,0,0,.75,72,375.57423)" d="M 48 0 L 218.63282 0 L 218.63282 18.398438 L 48 18.398438 Z " fill="#ffffff"/>
<path transform="matrix(.75,0,0,.75,72,403.17189)" d="M 48 0 L 623.625 0 L 623.625 18.398438 L 48 18.398438 Z " fill="#ffffff"/>
<path transform="matrix(.75,0,0,.75,72,430.76954)" d="M 48 0 L 278.54689 0 L 278.54689 18.398438 L 48 18.398438 Z " fill="#ffffff"/>
</g>
<clipPath id="cp2">
<path d="M 0 0 L 612 0 L 612 792 L 0 792 Z " fill-rule="evenodd"/>
</clipPath>
<g clip-path="url(#cp2)">
<text xml:space="preserve" transform="matrix(.75 0 0 .75 72 72)" font-size="16" font-family="TimesNewRomanPSMT"><tspan y="14.9375" x="0 11.552001 16.000002 24.000002 31.104002 37.328004 45.328004 49.039064 58.815065 66.81506 71.26306 76.591068 84.591068 97.03906 104.14307 112.14307 119.24707 123.69507 130.79907 138.79907 142.79907 146.79907 158.35108 166.35108 170.79907 177.90308 181.90308 193.45508 201.45508 213.90308 221.00708">Dinesh Thirumavalan, Kyle Kumar</tspan></text>
<text xml:space="preserve" transform="matrix(.75 0 0 .75 72 99.59766)" font-size="16" font-family="TimesNewRomanPSMT"><tspan y="14.9375" x="0 14.224001 20.448002 24.448002 28.448002 39.120004 43.568006 50.672006">Ms. Cler</tspan></text>
<text xml:space="preserve" transform="matrix(.75 0 0 .75 72 127.19531)" font-size="16" font-family="TimesNewRomanPSMT"><tspan y="14.9375" x="0 14.224001 22.224 26.672 34.672 42.672 47.120004 55.120004 63.120004 71.12 75.568 84.464008 92.464008 96.912 104.912 109.36 117.36 122.688">Mythology/Folklore</tspan></text>
<text xml:space="preserve" transform="matrix(.75 0 0 .75 72 154.79297)" font-size="16" font-family="TimesNewRomanPSMT"><tspan y="14.9375" x="0 8 11.1171879 22.66919 30.66919 35.99719 40.44519 44.893194 48.893194 56.893194 64.89319 72.89319">5 April 2021</tspan></text>
<text xml:space="preserve" transform="matrix(.75 0 0 .75 72 182.39063)" font-size="16" font-family="TimesNewRomanPSMT"><tspan y="14.9375" x="271.98048 285.80079 293.80079 299.12879 307.12879 313.35279 317.35279 328.02479 332.47279 336.92079 344.02479">Works Cited</tspan></text>
<text xml:space="preserve" transform="matrix(.75 0 0 .75 72 209.98828)" font-size="16" font-family="TimesNewRomanPSMT"><tspan y="14.9375" x="0 11.552001 16.880002 25.776001 34.672 44.448 54.224004 58.224004 62.224004 76.448009 86.234378 96.010379 105.78638 117.33838 127.11438 140.74219 144.74219 148.74219 155.84619 165.6222 173.6222 180.7262 184.7262 195.3982 206.9502 218.5022 225.92969 237.48169 248.15369 259.7057 270.3777 281.04969 292.60169 296.60169 303.7057 307.42189 316.07814 323.18214 331.18214 338.28614 344.51014 348.51014 362.73414 370.73414 378.73414 383.18214 391.18214 395.63014 402.58595">DIFFEE, MATTHEW. &#x201c;The CHUPACABRA.&#x201d; Texas Monthly,</tspan></text>
<text xml:space="preserve" transform="matrix(.75 0 0 .75 72 209.98828)" font-size="16" font-family="TimesNewRomanPSMT"><tspan y="14.9375" x="410.875 418.875 426.875 431.323 435.323 439.323 447.323 455.323 459.323 463.323 471.323 479.323 483.323 487.323 495.323 499.323 503.323 517.547 524.651 532.651 536.651 544.651 552.651 560.651 568.651 572.651 576.651 584.651 588.651 592.651 600.651 608.651">vol. 41, no. 5, May 2013, p. 64.</tspan></text>
<text xml:space="preserve" transform="matrix(.75 0 0 .75 72 237.58594)" font-size="16" font-family="TimesNewRomanPSMT"><tspan y="14.9375" x="48 57.776 68.448 77.344 88.01601 99.56801 107.56801 115.56801 121.79201 126.240009 130.24 134.24 140.464 147.56801 154.67201 160.00002 167.10402 175.10402 179.10402 186.20803 194.20803 200.43202 207.53603 215.53603 223.53603 231.53603 237.76003 242.20803 246.20803 253.31203 261.312 273.76 278.208 282.656 290.656 298.656 303.104 311.104 315.104 322.208 328.432 336.432 344.432 351.536 359.536 363.984 369.312 376.41603 383.52003 387.96803 396.992 401.44 406.768 414.768 421.872 434.32 442.32 450.32 459.344 466.448 474.448 482.448 494.896 506.448 518 527.024 535.024 543.024 551.024 559.024 567.024 575.024 583.024 591.024">EBSCOhost, search.ebscohost.com/login.aspx?direct=true&#x0026;db=a9h&#x0026;AN=86991379&#x0026;</tspan></text>
<text xml:space="preserve" transform="matrix(.75 0 0 .75 72 265.1836)" font-size="16" font-family="TimesNewRomanPSMT"><tspan y="14.9375" x="48 54.224 58.672 63.120004 70.22401 79.24801 86.35201 94.35201 102.35201 108.57601 113.02401 118.35201 122.80001 127.24801 135.24802 142.35202">site=ehost-live.</tspan></text>
<text xml:space="preserve" transform="matrix(.75 0 0 .75 72 292.78126)" font-size="16" font-family="TimesNewRomanPSMT"><tspan y="14.9375" x="0 9.776 16.880002 28.432003 32.880006 39.104005 43.104005 47.104005 57.776006 65.776 73.776 80.880008 86.20801 90.656009 94.656009 98.656009 105.184009 115.856 123.856 131.856 139.856 146.96 154.06401 161.16802 169.16802 174.49602 181.60002 188.12802 192.12802 196.12802 205.90402 213.90402 221.00803 229.00803 236.11203 240.56003 248.56003 256.56004 263.66404 271.66404 276.11204 283.21604 287.21604 297.88804 303.21604 307.66404 312.11204 319.21604 327.21604 335.21604 339.66404 346.76805 353.87205">Lewis, Robert. "Chupacabra". Encyclopedia Britannica,</tspan></text>
<text xml:space="preserve" transform="matrix(.75 0 0 .75 72 292.78126)" font-size="16" font-family="TimesNewRomanPSMT"><tspan y="14.9375" x="361.82814 369.82814 377.82814 381.82814 396.05213 403.15614 410.1172 414.1172 418.1172 426.1172 434.1172 442.1172 450.1172">18 May. 2020,</tspan></text>
<text xml:space="preserve" transform="matrix(.75 0 0 .75 72 320.3789)" font-size="16" font-family="TimesNewRomanPSMT"><tspan y="14.9375" x="48 56 60.448 64.896 72.896 79.12 83.568 88.016 92.464 104.016 115.568 126.078128 130.07813 138.07813 143.40613 147.85413 152.30213 159.40613 167.40613 175.40613 179.85413 186.95813 194.06214 198.06214 205.16614 213.16614 225.61414 230.06214 234.51013 242.51013 250.51013 254.95813 262.06214 266.51014 273.61415 281.61415 289.61415 297.61415 304.71815 311.82215 318.92616 326.92616 332.25416 339.35816 343.35816 346.4297 357.9817 365.0857 372.1897 379.2937 385.5177 391.7417 398.8457">https://www.britannica.com/topic/chupacabra. Accessed</tspan></text>
<text xml:space="preserve" transform="matrix(.75 0 0 .75 72 320.3789)" font-size="16" font-family="TimesNewRomanPSMT"><tspan y="14.9375" x="411.72657 419.72657 427.72657 431.72657 445.95057 453.05458 458.38258 465.48658 473.48658 477.48658 485.48658 493.48658 501.48658 509.48658">22 March 2021.</tspan></text>
<text fill="#323232" xml:space="preserve" transform="matrix(.75 0 0 .75 72 347.97657)" font-size="16" font-family="TimesNewRomanPSMT"><tspan y="14.9375" x="0 9.776 17.776001 24.880002 32.88 36.88 40.88 52.432004 59.536005 63.976564 67.97656 71.97656 79.08057 89.75256 97.75256 105.75256 113.75256 120.85657 127.96057 135.06458 143.06458 148.39258 155.49658 159.49658 168.39258 175.49658 179.94458 187.04859 195.04859 202.15259 209.25659 213.70459 217.70459 229.25659 237.25659 248.8086 252.8086 262.5846 270.5846 278.5846 283.0326 291.0326 295.4806 299.9286 307.9286 315.9286 319.9286 334.1526 341.2566 349.2566">Than, Ker. &#x201c;Chupacabra Science: How Evolution Made</tspan></text>
<text fill="#323232" xml:space="preserve" transform="matrix(.75 0 0 .75 72 347.97657)" font-size="16" font-family="TimesNewRomanPSMT"><tspan y="14.9375" x="360.32814 367.43214 371.43214 385.65614 393.65614 398.10414 406.10414 410.55213 417.65614 424.76014 429.20814 433.20814 447.43214 455.43214 463.43214 469.65614 474.10414 481.20814 485.64064 489.64064">a Mythical Monster.&#x201d;</tspan></text>
<text fill="#323232" xml:space="preserve" transform="matrix(.75 0 0 .75 72 347.97657)" font-size="16" font-family="TimesNewRomanPS" font-style="italic"><tspan y="14.9375" x="500.7422 511.41419 519.4142 523.8622 528.3102 536.3102 541.9375">Culture</tspan></text>
<text fill="#323232" xml:space="preserve" transform="matrix(.75 0 0 .75 72 347.97657)" font-size="16" font-family="TimesNewRomanPSMT"><tspan y="14.9375" x="549.03909 553.03909 557.03909 568.59109 575.69509 580.14309 584.59109 592.59109 600.59109 607.69509">, National</tspan></text>
<text fill="#323232" xml:space="preserve" transform="matrix(.75 0 0 .75 72 375.57423)" font-size="16" font-family="TimesNewRomanPSMT"><tspan y="14.9375" x="48 59.552003 66.656009 74.656009 82.656009 87.98401 95.08801 103.08801 111.08801 115.53601 122.640018 126.640018 130.64002 138.64002 146.64002 150.64002 159.53601 166.64002 174.64002 178.64002 182.64002 190.64002 198.64002 206.64002 214.64002">Geographic, 10 Feb. 2021,</tspan></text>
<text fill="#323232" xml:space="preserve" transform="matrix(.75 0 0 .75 72 403.17189)" font-size="16" font-family="TimesNewRomanPSMT"><tspan y="14.9375" x="48 59.552003 71.104007 81.625 85.625 93.625 100.729007 105.177 109.625 117.625 125.625 132.729 137.177 145.177 152.281 160.281 168.281 173.60901 180.71302 188.71302 196.71302 201.16101 208.26502 212.26502 219.36902 227.36902 239.81702 244.26502 251.36902 259.36903 263.81703 268.265 276.265 281.59303 288.69703 293.14503 300.24903 305.57704 310.02503 314.47303 321.57704 326.02503 333.12904 337.57704 345.57704 353.57704 361.57704 369.57704 377.57704 385.57704 390.90504 398.00904 406.00904 414.00904 422.00904 429.11305 436.21705 443.32106 451.32106 456.64906 463.75306 469.08106 476.18507 484.18507 492.18507 496.63307 504.63307 509.08106 513.52908 521.52908 529.52908 534.85708 542.85708 549.96109 554.40908 558.85708 566.85708 578.40908 585.51309 592.61709 600.61709 605.94509 612.16909 619.2731">www.nationalgeographic.com/culture/article/101028-chupacabra-evolution-halloween-sci</tspan></text>
<text fill="#323232" xml:space="preserve" transform="matrix(.75 0 0 .75 72 430.76954)" font-size="16" font-family="TimesNewRomanPSMT"><tspan y="14.9375" x="48 55.104 63.104 70.208 77.312007 82.64001 95.088008 103.088008 111.088008 117.312007 121.76 128.864 134.192 140.416 145.744 152.848 160.848 168.848 176.848 183.95201 191.05602 198.16002 206.16002 211.48802 218.59203 224.81603 230.14403 238.14403 242.59203 249.69603 254.14403 262.14405 267.47206 274.57606">ence-monsters-chupacabras-picture.</tspan></text>
<text xml:space="preserve" transform="matrix(.75 0 0 .75 72 458.3672)" font-size="16" font-family="TimesNewRomanPSMT"><tspan y="14.9375" x="0 13.8203129 20.924313 28.924313 36.028314 44.028314 52.028314 59.132314 63.580316 76.02831 80.02831 84.02831 95.580318 102.68432 107.13232 111.13232 115.13232 118.828128 132.64844 139.75244 147.75244 154.85645 162.85645 170.85645 177.96045 182.40845 194.85645 198.85645 202.85645 214.40845 218.85645 226.85645 233.96045 237.96045 244.18445 248.18445 252.18445 259.28846 267.28846 275.28846 279.28846 293.51246 300.61647 305.06446 313.06446 320.16847 331.72047 337.94447 341.94447 345.64064 355.41664 363.41664 371.41664 383.86463 390.96864">Wagenheim, Kal , Wagenheim, Olga J. and Mathews, Thomas</tspan></text>
<text xml:space="preserve" transform="matrix(.75 0 0 .75 72 458.3672)" font-size="16" font-family="TimesNewRomanPSMT"><tspan y="14.9375" x="401.76564 413.31764 417.31764 421.31764 425.31764 431.84565 440.74165 448.74165 455.84565 461.17366 465.62165 473.62165 477.62165 488.29365 492.74165 499.84565 507.84565 514.37368 518.37368 522.37368 532.14968 540.14968 547.25369 555.25369 562.35769 566.80569 574.80569 582.80569 589.90969 597.90969 602.35769">G.. "Puerto Rico". Encyclopedia</tspan></text>
<text xml:space="preserve" transform="matrix(.75 0 0 .75 72 485.96485)" font-size="16" font-family="TimesNewRomanPSMT"><tspan y="14.9375" x="48 58.672 64 68.448 72.895999 80 88 96 100.448 107.552 114.656009 118.656009 122.656009 130.656 138.656 142.656 156.88 163.98401 168.41407 172.41407 176.41407 184.41407 192.41407 200.41407 208.41407 212.41407 216.41407 224.41407 228.86206 233.31006 241.31006 247.53406 251.98206 256.43006 260.87806 272.43006 283.98207 294.4922 298.4922 306.4922 311.8202 316.2682 320.7162 327.8202 335.8202 343.8202 348.2682 355.3722 362.4762 366.4762 373.5802 381.5802 394.0282 398.4762 406.4762 410.9242 418.0282 425.1322 432.2362 436.6842 445.5802 453.5802 460.6842 466.0122 470.4602 478.4602 483.7882 494.4602 498.9082 506.0122 514.0122">Britannica, 20 Mar. 2021, https://www.britannica.com/place/Puerto-Rico.</tspan></text>
<text xml:space="preserve" transform="matrix(.75 0 0 .75 72 485.96485)" font-size="16" font-family="TimesNewRomanPSMT"><tspan y="14.9375" x="521.96878 533.52078 540.62478 547.72879 554.83279 561.05679 567.28079 574.38479 582.38479 586.38479 594.38479">Accessed 22</tspan></text>
<text xml:space="preserve" transform="matrix(.75 0 0 .75 72 513.5625)" font-size="16" font-family="TimesNewRomanPSMT"><tspan y="14.9375" x="48 62.224 69.328 74.656009 81.76001 89.76001 93.76001 101.76001 109.76001 117.76001 125.76001">March 2021.</tspan></text>
</g>
</g>
</svg>
