<?xml version="1.0" encoding="UTF-8" standalone="no"?>
<!DOCTYPE svg PUBLIC "-//W3C//DTD SVG 1.1//EN" "http://www.w3.org/Graphics/SVG/1.1/DTD/svg11.dtd">
<svg xmlns="http://www.w3.org/2000/svg" xmlns:xlink="http://www.w3.org/1999/xlink" version="1.1" width="612pt" height="792pt" viewBox="0 0 612 792">
<g enable-background="new">
<clipPath id="cp10">
<path d="M 0 0 L 612 0 L 612 792 L 0 792 Z " fill-rule="evenodd"/>
</clipPath>
<g clip-path="url(#cp10)">
<path transform="matrix(.75,0,0,.75,0,0)" d="M 0 0 L 816 0 L 816 1056 L 0 1056 Z " fill="#ffffff"/>
</g>
<clipPath id="cp11">
<path d="M 0 0 L 612 0 L 612 72 L 0 72 Z " fill-rule="evenodd"/>
</clipPath>
<g clip-path="url(#cp11)">
<symbol id="font_c_37">
<path d="M .54833987 .6621094 L .55566409 .50683596 L .5371094 .50683596 C .5335286 .5341797 .5286458 .55371096 .52246096 .5654297 C .5123698 .5843099 .4988607 .59814456 .4819336 .6069336 C .46533204 .61604818 .44335938 .62060549 .41601563 .62060549 L .3227539 .62060549 L .3227539 .114746097 C .3227539 .07405599 .32714845 .048665365 .3359375 .03857422 C .34830729 .024902344 .36735026 .018066407 .3930664 .018066407 L .41601563 .018066407 L .41601563 0 L .1352539 0 L .1352539 .018066407 L .1586914 .018066407 C .1866862 .018066407 .20654297 .026529948 .21826172 .04345703 C .22542317 .0538737 .2290039 .07763672 .2290039 .114746097 L .2290039 .62060549 L .14941406 .62060549 C .118489589 .62060549 .09651693 .61832687 .083496097 .61376956 C .06656901 .60758468 .052083333 .5957031 .040039064 .578125 C .027994791 .5605469 .020833334 .5367839 .018554688 .50683596 L 0 .50683596 L .0078125 .6621094 L .54833987 .6621094 Z "/>
</symbol>
<symbol id="font_c_4b">
<path d="M .15625 .69433596 L .15625 .3671875 C .19238281 .40690104 .22102864 .43229167 .2421875 .44335938 C .26334635 .4547526 .28450523 .46044923 .30566407 .46044923 C .3310547 .46044923 .3528646 .45345054 .37109376 .43945313 C .3893229 .42545573 .40283204 .40348307 .4116211 .37353517 C .417806 .3527018 .42089845 .31461589 .42089845 .25927735 L .42089845 .10107422 C .42089845 .072753909 .4231771 .053385419 .42773438 .04296875 C .4309896 .03515625 .43652345 .028971354 .44433595 .024414063 C .45214845 .019856772 .46647135 .017578125 .4873047 .017578125 L .4873047 0 L .26757813 0 L .26757813 .017578125 L .27783204 .017578125 C .29866538 .017578125 .31315104 .020670573 .32128907 .026855469 C .3294271 .033365888 .3351237 .04280599 .3383789 .05517578 C .33935548 .060384115 .33984376 .075683597 .33984376 .10107422 L .33984376 .25927735 C .33984376 .30810548 .3372396 .34016929 .33203126 .35546876 C .32714845 .37076823 .3191732 .38216148 .30810548 .38964845 C .29703776 .39746095 .2836914 .4013672 .2680664 .4013672 C .25211589 .4013672 .23551433 .3971354 .21826172 .38867188 C .20100911 .38020835 .18033855 .3631185 .15625 .33740235 L .15625 .10107422 C .15625 .07047526 .15787761 .051432294 .16113281 .043945314 C .16471355 .036458333 .1710612 .030110678 .18017578 .024902344 C .18961589 .020019532 .20572917 .017578125 .22851563 .017578125 L .22851563 0 L .0068359377 0 L .0068359377 .017578125 C .026692709 .017578125 .042317708 .020670573 .053710939 .026855469 C .060221357 .030110678 .06542969 .036295576 .06933594 .045410158 C .07324219 .05452474 .07519531 .07307943 .07519531 .10107422 L .07519531 .5058594 C .07519531 .5569661 .07389323 .5883789 .07128906 .60009768 C .069010417 .6118164 .06526693 .6197917 .060058595 .62402346 C .05517578 .6282552 .048502607 .6303711 .040039064 .6303711 C .033203126 .6303711 .022135416 .6277669 .0068359377 .6225586 L 0 .63964846 L .13378906 .69433596 L .15625 .69433596 Z "/>
</symbol>
<symbol id="font_c_4c">
<path d="M .115722659 .69433596 C .12939453 .69433596 .14095052 .6894531 .15039063 .6796875 C .16015625 .6702474 .16503906 .6586914 .16503906 .64501956 C .16503906 .63134768 .16015625 .6196289 .15039063 .6098633 C .14095052 .60009768 .12939453 .59521487 .115722659 .59521487 C .10205078 .59521487 .09033203 .60009768 .080566409 .6098633 C .07080078 .6196289 .06591797 .63134768 .06591797 .64501956 C .06591797 .6586914 .07063802 .6702474 .080078128 .6796875 C .08984375 .6894531 .10172526 .69433596 .115722659 .69433596 M .15625 .46044923 L .15625 .10107422 C .15625 .07307943 .15820313 .05436198 .16210938 .044921876 C .16634114 .035807294 .17236328 .028971354 .18017578 .024414063 C .1883138 .019856772 .20296224 .017578125 .2241211 .017578125 L .2241211 0 L .0068359377 0 L .0068359377 .017578125 C .028645834 .017578125 .04329427 .01969401 .05078125 .023925782 C .05826823 .028157553 .0641276 .03515625 .068359378 .044921876 C .072916667 .0546875 .07519531 .073404949 .07519531 .10107422 L .07519531 .2734375 C .07519531 .3219401 .07373047 .35335288 .07080078 .36767579 C .06852213 .37809245 .064941409 .3852539 .060058595 .38916017 C .05517578 .39339195 .048502607 .3955078 .040039064 .3955078 C .030924479 .3955078 .019856772 .3930664 .0068359377 .3881836 L 0 .40576173 L .13476563 .46044923 L .15625 .46044923 Z "/>
</symbol>
<symbol id="font_c_55">
<path d="M .15576172 .46044923 L .15576172 .35986329 C .19319661 .42692057 .23160808 .46044923 .2709961 .46044923 C .28889976 .46044923 .30371095 .45491538 .3154297 .44384767 C .32714845 .43310548 .3330078 .4205729 .3330078 .40625 C .3330078 .3935547 .32877604 .3828125 .3203125 .37402345 C .31184898 .36523438 .3017578 .36083985 .29003907 .36083985 C .27864585 .36083985 .26578776 .3663737 .25146485 .3774414 C .23746746 .38883464 .22705078 .39453126 .22021485 .39453126 C .21435547 .39453126 .20800781 .39127604 .20117188 .38476563 C .18652344 .37141929 .17138672 .34944663 .15576172 .31884767 L .15576172 .10449219 C .15576172 .0797526 .15885417 .061035158 .16503906 .048339845 C .16927083 .03955078 .17675781 .032226564 .1875 .026367188 C .19824219 .020507813 .21370442 .017578125 .23388672 .017578125 L .23388672 0 L .0048828127 0 L .0048828127 .017578125 C .027669272 .017578125 .044596357 .021158854 .055664064 .028320313 C .063802089 .033528646 .069498699 .041829427 .072753909 .053222658 C .07438151 .05875651 .07519531 .07454427 .07519531 .10058594 L .07519531 .27392579 C .07519531 .32600913 .07405599 .3569336 .071777347 .36669923 C .06982422 .37679038 .06591797 .3841146 .060058595 .38867188 C .05452474 .39322917 .047526044 .3955078 .0390625 .3955078 C .028971354 .3955078 .017578125 .3930664 .0048828127 .3881836 L 0 .40576173 L .1352539 .46044923 L .15576172 .46044923 Z "/>
</symbol>
<symbol id="font_c_58">
<path d="M .42236329 .4609375 L .42236329 .1899414 C .42236329 .1381836 .4235026 .10644531 .42578126 .09472656 C .4283854 .083333339 .43229167 .07535807 .4375 .07080078 C .44303385 .06624349 .4493815 .063964847 .45654298 .063964847 C .46663413 .063964847 .47802735 .06673177 .49072267 .072265628 L .4975586 .05517578 L .36376954 0 L .34179688 0 L .34179688 .09472656 C .3033854 .053059896 .27408854 .026855469 .25390626 .016113282 C .23372396 .0053710939 .21240235 0 .1899414 0 C .1648763 0 .1430664 .0071614587 .12451172 .021484375 C .106282558 .036132814 .09358724 .05485026 .08642578 .07763672 C .07926432 .10042318 .075683597 .13264974 .075683597 .1743164 L .075683597 .37402345 C .075683597 .39518229 .073404949 .40983073 .068847659 .41796876 C .06429037 .42610679 .057454427 .43229167 .048339845 .43652345 C .03955078 .44108073 .0234375 .44319663 0 .4428711 L 0 .4609375 L .15673828 .4609375 L .15673828 .1616211 C .15673828 .11995443 .16389974 .09261068 .17822266 .079589847 C .1928711 .06656901 .21044922 .060058595 .23095703 .060058595 C .24495442 .060058595 .2607422 .064453128 .2783203 .07324219 C .29622398 .08203125 .3173828 .09879557 .34179688 .123535159 L .34179688 .37695313 C .34179688 .40234376 .3370768 .4194336 .32763673 .42822267 C .31852214 .43733726 .2993164 .44222007 .27001954 .4428711 L .27001954 .4609375 L .42236329 .4609375 Z "/>
</symbol>
<symbol id="font_c_50">
<path d="M .15576172 .36523438 C .1883138 .39778648 .20751953 .4165039 .2133789 .42138673 C .22802735 .4337565 .24381511 .44335938 .2607422 .4501953 C .27766929 .45703126 .2944336 .46044923 .31103517 .46044923 C .33902995 .46044923 .3631185 .4523112 .38330079 .43603517 C .40348307 .41975913 .4169922 .39615885 .42382813 .36523438 C .45735679 .40429688 .4856771 .42985026 .50878909 .44189454 C .53190109 .4542643 .55566409 .46044923 .5800781 .46044923 C .6038411 .46044923 .6248372 .4542643 .6430664 .44189454 C .6616211 .42985026 .67626956 .4099935 .6870117 .38232423 C .69417318 .363444 .6977539 .33382163 .6977539 .29345704 L .6977539 .10107422 C .6977539 .07307943 .6998698 .0538737 .70410159 .04345703 C .70735678 .036295576 .7133789 .030110678 .72216799 .024902344 C .73095706 .020019532 .74527999 .017578125 .7651367 .017578125 L .7651367 0 L .5444336 0 L .5444336 .017578125 L .55371096 .017578125 C .5729167 .017578125 .5878906 .021321616 .5986328 .028808594 C .6061198 .034016927 .6114909 .042317708 .6147461 .053710939 C .61604818 .059244794 .6166992 .075032558 .6166992 .10107422 L .6166992 .29345704 C .6166992 .32991538 .6123047 .3556315 .6035156 .37060548 C .5908203 .3914388 .5704753 .40185548 .54248049 .40185548 C .52522787 .40185548 .5078125 .39746095 .49023438 .38867188 C .47298179 .38020835 .4519857 .3642578 .4272461 .3408203 L .42626954 .33544923 L .4272461 .31445313 L .4272461 .10107422 C .4272461 .07047526 .4288737 .051432294 .4321289 .043945314 C .43570964 .036458333 .44222007 .030110678 .45166017 .024902344 C .46110026 .020019532 .47721354 .017578125 .5 .017578125 L .5 0 L .27392579 0 L .27392579 .017578125 C .29866538 .017578125 .31559245 .020507813 .32470704 .026367188 C .33414714 .032226564 .34065757 .041015626 .34423829 .052734376 C .34586589 .05826823 .3466797 .07438151 .3466797 .10107422 L .3466797 .29345704 C .3466797 .32991538 .3413086 .35611979 .3305664 .3720703 C .3162435 .39290367 .29622398 .4033203 .2705078 .4033203 C .2529297 .4033203 .23551433 .39860026 .21826172 .38916017 C .19124349 .37483726 .17041016 .35872398 .15576172 .3408203 L .15576172 .10107422 C .15576172 .071777347 .15771485 .052734376 .1616211 .043945314 C .16585286 .03515625 .171875 .028483073 .1796875 .023925782 C .18782552 .01969401 .20410156 .017578125 .22851563 .017578125 L .22851563 0 L .0073242189 0 L .0073242189 .017578125 C .027832032 .017578125 .04215495 .01969401 .05029297 .023925782 C .05843099 .028483073 .06461588 .03548177 .068847659 .044921876 C .07307943 .0546875 .07519531 .073404949 .07519531 .10107422 L .07519531 .27197267 C .07519531 .3211263 .07373047 .3528646 .07080078 .3671875 C .06852213 .3779297 .064941409 .3852539 .060058595 .38916017 C .05517578 .39339195 .048502607 .3955078 .040039064 .3955078 C .030924479 .3955078 .020019532 .3930664 .0073242189 .3881836 L 0 .40576173 L .13476563 .46044923 L .15576172 .46044923 L .15576172 .36523438 Z "/>
</symbol>
<symbol id="font_c_44">
<path d="M .24902344 .07373047 C .203125 .0382487 .1743164 .017740885 .16259766 .012207031 C .14501953 .0040690104 .12630208 0 .10644531 0 C .075520839 0 .04996745 .010579427 .029785157 .03173828 C .009928386 .052897138 0 .080729167 0 .115234378 C 0 .13704427 .0048828127 .15592449 .0146484379 .171875 C .027994791 .19401042 .05110677 .21484375 .083984378 .234375 C .1171875 .25390626 .17220052 .27766929 .24902344 .30566407 L .24902344 .3232422 C .24902344 .36783854 .24186199 .3984375 .22753906 .41503907 C .21354167 .43164063 .19303386 .4399414 .16601563 .4399414 C .14550781 .4399414 .12923177 .43440757 .1171875 .42333985 C .10481771 .41227214 .09863281 .3995768 .09863281 .3852539 L .099609378 .3569336 C .099609378 .34195964 .095703128 .33040367 .087890628 .32226563 C .08040365 .3141276 .07047526 .3100586 .05810547 .3100586 C .0460612 .3100586 .036132814 .31429038 .028320313 .3227539 C .020833334 .33121745 .017089844 .34277345 .017089844 .35742188 C .017089844 .38541667 .03141276 .4111328 .060058595 .4345703 C .08870443 .4580078 .12890625 .46972657 .18066406 .46972657 C .22037761 .46972657 .2529297 .46305339 .2783203 .44970704 C .29752604 .43961589 .3116862 .42382813 .32080079 .40234376 C .32666017 .38834635 .32958985 .35970054 .32958985 .31640626 L .32958985 .16455078 C .32958985 .121907558 .33040367 .095703128 .33203126 .0859375 C .33365885 .0764974 .33626304 .07014974 .33984376 .06689453 C .34375 .06363932 .34814454 .06201172 .35302735 .06201172 C .3582357 .06201172 .36279298 .06315104 .36669923 .06542969 C .37353517 .06966146 .38671876 .08154297 .40625 .10107422 L .40625 .07373047 C .36979167 .024902344 .33496095 .00048828127 .3017578 .00048828127 C .28580729 .00048828127 .27311198 .0060221354 .26367188 .017089844 C .25423179 .028157553 .24934896 .04703776 .24902344 .07373047 M .24902344 .10546875 L .24902344 .2758789 C .1998698 .25634767 .16813152 .24251302 .1538086 .234375 C .12809246 .22005208 .10970052 .20507813 .09863281 .18945313 C .0875651 .17382813 .08203125 .15673828 .08203125 .1381836 C .08203125 .114746097 .089029949 .095214847 .103027347 .079589847 C .11702474 .06429037 .13313802 .056640626 .15136719 .056640626 C .17610677 .056640626 .20865886 .072916667 .24902344 .10546875 Z "/>
</symbol>
<symbol id="font_c_59">
<path d="M 0 .4609375 L .21044922 .4609375 L .21044922 .4428711 L .19677735 .4428711 C .18408203 .4428711 .1743164 .43977867 .16748047 .43359376 C .16097005 .42740885 .15771485 .41910807 .15771485 .4086914 C .15771485 .3972982 .16113281 .38378907 .16796875 .36816407 L .27197267 .12109375 L .37646485 .3774414 C .3839518 .39567057 .3876953 .40950523 .3876953 .4189453 C .3876953 .4235026 .38639323 .4272461 .38378907 .43017579 C .38020835 .4350586 .37565104 .4383138 .3701172 .4399414 C .36458335 .44189454 .35335288 .4428711 .33642579 .4428711 L .33642579 .4609375 L .48242188 .4609375 L .48242188 .4428711 C .46549479 .441569 .45377604 .43815104 .44726563 .4326172 C .4358724 .42285157 .4256185 .40657554 .4165039 .38378907 L .2578125 0 L .23779297 0 L .078125 .3774414 C .07096354 .39501954 .0641276 .4075521 .057617189 .41503907 C .05110677 .42285157 .04280599 .42936198 .032714845 .4345703 C .02718099 .4375 .016276041 .44026695 0 .4428711 L 0 .4609375 Z "/>
</symbol>
<symbol id="font_c_4f">
<path d="M .15527344 .69433596 L .15527344 .10107422 C .15527344 .07307943 .15722656 .05452474 .16113281 .045410158 C .16536458 .036295576 .17171224 .029296875 .18017578 .024414063 C .18863933 .019856772 .20442708 .017578125 .22753906 .017578125 L .22753906 0 L .008300781 0 L .008300781 .017578125 C .028808594 .017578125 .04280599 .01969401 .05029297 .023925782 C .05777995 .028157553 .06363932 .03515625 .067871097 .044921876 C .07210287 .0546875 .07421875 .073404949 .07421875 .10107422 L .07421875 .5073242 C .07421875 .55777999 .07307943 .5887044 .07080078 .60009768 C .06852213 .6118164 .06477865 .6197917 .059570314 .62402346 C .0546875 .6282552 .048339845 .6303711 .040527345 .6303711 C .0320638 .6303711 .021321616 .6277669 .008300781 .6225586 L 0 .63964846 L .13330078 .69433596 L .15527344 .69433596 Z "/>
</symbol>
<symbol id="font_c_51">
<path d="M .15576172 .36572267 C .20817058 .4288737 .25813804 .46044923 .30566407 .46044923 C .33007813 .46044923 .35107423 .4542643 .36865235 .44189454 C .38623048 .42985026 .40022788 .40983073 .41064454 .38183595 C .417806 .3623047 .42138673 .33235679 .42138673 .2919922 L .42138673 .10107422 C .42138673 .072753909 .42366538 .053548177 .42822267 .04345703 C .43180339 .03531901 .4375 .028971354 .4453125 .024414063 C .45345054 .019856772 .46826173 .017578125 .4897461 .017578125 L .4897461 0 L .2685547 0 L .2685547 .017578125 L .27783204 .017578125 C .29866538 .017578125 .31315104 .020670573 .32128907 .026855469 C .3297526 .033365888 .33561198 .04280599 .3388672 .05517578 C .34016929 .060058595 .3408203 .07535807 .3408203 .10107422 L .3408203 .2841797 C .3408203 .32486979 .33544923 .35432945 .32470704 .3725586 C .31429038 .39111329 .29654948 .40039063 .27148438 .40039063 C .23274739 .40039063 .19417317 .37923179 .15576172 .33691407 L .15576172 .10107422 C .15576172 .07080078 .15755208 .052083333 .16113281 .044921876 C .16569011 .03548177 .171875 .028483073 .1796875 .023925782 C .18782552 .01969401 .20410156 .017578125 .22851563 .017578125 L .22851563 0 L .0073242189 0 L .0073242189 .017578125 L .017089844 .017578125 C .0398763 .017578125 .05517578 .02327474 .06298828 .03466797 C .071126308 .04638672 .07519531 .06852213 .07519531 .10107422 L .07519531 .26708985 C .07519531 .32080079 .07389323 .35351563 .07128906 .36523438 C .069010417 .37695313 .06526693 .38492839 .060058595 .38916017 C .05517578 .39339195 .048502607 .3955078 .040039064 .3955078 C .030924479 .3955078 .020019532 .3930664 .0073242189 .3881836 L 0 .40576173 L .13476563 .46044923 L .15576172 .46044923 L .15576172 .36572267 Z "/>
</symbol>
<symbol id="font_c_f">
<path d="M 0 0 L 0 .021484375 C .033528646 .032552083 .05940755 .049804689 .07763672 .07324219 C .096191409 .096354167 .10546875 .12093099 .10546875 .14697266 C .10546875 .15315755 .104003909 .15836589 .10107422 .16259766 C .09879557 .16552735 .09651693 .16699219 .09423828 .16699219 C .090657558 .16699219 .082845058 .16373699 .07080078 .15722656 C .064941409 .15429688 .05875651 .15283203 .052246095 .15283203 C .036295576 .15283203 .02360026 .15755208 .014160156 .16699219 C .0047200524 .1764323 0 .18945313 0 .20605469 C 0 .2220052 .0060221354 .23567708 .018066407 .24707031 C .030436198 .25846354 .045410158 .26416017 .06298828 .26416017 C .084472659 .26416017 .103515628 .25472007 .12011719 .23583985 C .13704427 .21728516 .14550781 .19254558 .14550781 .1616211 C .14550781 .12809246 .13378906 .09700521 .11035156 .068359378 C .087239589 .03938802 .05045573 .016601563 0 0 Z "/>
</symbol>
<symbol id="font_c_3">
<path d="M 0 0 Z "/>
</symbol>
<symbol id="font_c_2e">
<path d="M .28222657 .3671875 L .5263672 .12451172 C .56640627 .084472659 .60058596 .057128908 .62890627 .04248047 C .65722659 .028157553 .6855469 .020019532 .7138672 .018066407 L .7138672 0 L .39892579 0 L .39892579 .018066407 C .417806 .018066407 .4313151 .021158854 .43945313 .02734375 C .44791667 .033854169 .45214845 .041015626 .45214845 .048828126 C .45214845 .056640626 .45052085 .06363932 .44726563 .06982422 C .44433595 .07600912 .43424479 .0875651 .4169922 .10449219 L .18847656 .3305664 L .18847656 .1171875 C .18847656 .08365885 .19059246 .061523439 .19482422 .05078125 C .19807942 .04264323 .20491536 .03564453 .21533203 .029785157 C .22932942 .021972657 .24414063 .018066407 .25976563 .018066407 L .28222657 .018066407 L .28222657 0 L 0 0 L 0 .018066407 L .0234375 .018066407 C .05078125 .018066407 .07063802 .026041666 .08300781 .041992189 C .09082031 .052408857 .09472656 .07747396 .09472656 .1171875 L .09472656 .5449219 C .09472656 .5784505 .09261068 .6007487 .088378909 .6118164 C .085123699 .6196289 .07845052 .62646487 .068359378 .6323242 C .054036458 .6401367 .0390625 .64404299 .0234375 .64404299 L 0 .64404299 L 0 .6621094 L .28222657 .6621094 L .28222657 .64404299 L .25976563 .64404299 C .24446614 .64404299 .22965496 .6402995 .21533203 .6328125 C .20524089 .6276042 .19824219 .6197917 .19433594 .609375 C .19042969 .5989583 .18847656 .57747396 .18847656 .5449219 L .18847656 .34228517 C .19498699 .34847007 .21728516 .36914063 .2553711 .40429688 C .35205079 .49283854 .41048179 .5519206 .43066407 .58154299 C .43945313 .5945638 .44384767 .60595706 .44384767 .61572268 C .44384767 .62320968 .4404297 .62972006 .43359376 .6352539 C .4267578 .6411133 .4152018 .64404299 .39892579 .64404299 L .38378907 .64404299 L .38378907 .6621094 L .6269531 .6621094 L .6269531 .64404299 C .6126302 .64371749 .5996094 .64176437 .5878906 .6381836 C .5761719 .63460287 .56184896 .6276042 .5449219 .6171875 C .5279948 .6070964 .50716146 .59065756 .48242188 .5678711 C .4752604 .56136068 .44222007 .5279948 .38330079 .46777345 L .28222657 .3671875 Z "/>
</symbol>
<use xlink:href="#font_c_37" transform="matrix(12,0,0,-12,413.4082,47.203126)"/>
<use xlink:href="#font_c_4b" transform="matrix(12,0,0,-12,420.4531,47.203126)"/>
<use xlink:href="#font_c_4c" transform="matrix(12,0,0,-12,426.7285,47.203126)"/>
<use xlink:href="#font_c_55" transform="matrix(12,0,0,-12,429.7891,47.203126)"/>
<use xlink:href="#font_c_58" transform="matrix(12,0,0,-12,433.72065,47.367189)"/>
<use xlink:href="#font_c_50" transform="matrix(12,0,0,-12,439.80854,47.203126)"/>
<use xlink:href="#font_c_44" transform="matrix(12,0,0,-12,449.47267,47.314455)"/>
<use xlink:href="#font_c_59" transform="matrix(12,0,0,-12,454.47254,47.367189)"/>
<use xlink:href="#font_c_44" transform="matrix(12,0,0,-12,460.80067,47.314455)"/>
<use xlink:href="#font_c_4f" transform="matrix(12,0,0,-12,466.05836,47.203126)"/>
<use xlink:href="#font_c_44" transform="matrix(12,0,0,-12,469.46467,47.314455)"/>
<use xlink:href="#font_c_59" transform="matrix(12,0,0,-12,474.46455,47.367189)"/>
<use xlink:href="#font_c_44" transform="matrix(12,0,0,-12,480.79267,47.314455)"/>
<use xlink:href="#font_c_51" transform="matrix(12,0,0,-12,485.76325,47.203126)"/>
<use xlink:href="#font_c_f" transform="matrix(12,0,0,-12,492.33747,49.20117)"/>
<use xlink:href="#font_c_3" transform="matrix(12,0,0,-12,494.69294,47.203126)"/>
<use xlink:href="#font_c_2e" transform="matrix(12,0,0,-12,497.89216,47.203126)"/>
<use xlink:href="#font_c_58" transform="matrix(12,0,0,-12,506.36866,47.367189)"/>
<use xlink:href="#font_c_50" transform="matrix(12,0,0,-12,512.45657,47.203126)"/>
<use xlink:href="#font_c_44" transform="matrix(12,0,0,-12,522.12069,47.314455)"/>
<use xlink:href="#font_c_55" transform="matrix(12,0,0,-12,527.0971,47.203126)"/>
<symbol id="font_c_16">
<path d="M .010253906 .54785159 C .029134116 .59244796 .052897138 .62679037 .08154297 .6508789 C .11051432 .67529299 .14648438 .6875 .18945313 .6875 C .24251302 .6875 .28320313 .6702474 .31152345 .6357422 C .3330078 .61002609 .34375 .58251956 .34375 .55322268 C .34375 .5050456 .31347657 .45524089 .2529297 .4038086 C .29361979 .38785807 .3243815 .36507163 .34521485 .33544923 C .3660482 .3058268 .37646485 .2709961 .37646485 .23095703 C .37646485 .17366536 .3582357 .12402344 .32177735 .08203125 C .2742513 .02734375 .20540364 0 .115234378 0 C .07063802 0 .040201826 .005533854 .023925782 .016601563 C .007975261 .027669272 0 .03955078 0 .052246095 C 0 .0616862 .0037434896 .06998698 .011230469 .07714844 C .019042969 .0843099 .028320313 .087890628 .0390625 .087890628 C .04720052 .087890628 .0555013 .08658854 .063964847 .083984378 C .069498699 .08235677 .08203125 .07633463 .1015625 .06591797 C .12109375 .055826826 .13460286 .049804689 .14208985 .047851564 C .15413411 .044270833 .16699219 .04248047 .18066406 .04248047 C .21386719 .04248047 .24267578 .055338544 .26708985 .08105469 C .29182945 .106770839 .30419923 .13720703 .30419923 .17236328 C .30419923 .19807942 .2985026 .22314453 .28710938 .2475586 C .27864585 .26578776 .2693685 .2796224 .25927735 .2890625 C .24527996 .30208335 .22607422 .3138021 .20166016 .32421876 C .1772461 .33496095 .15234375 .34033204 .12695313 .34033204 L .111328128 .34033204 L .111328128 .35498048 C .13704427 .3582357 .16276042 .36751304 .18847656 .3828125 C .21451824 .39811198 .23339844 .4165039 .24511719 .43798829 C .25683595 .45947267 .2626953 .4830729 .2626953 .50878909 C .2626953 .5423177 .25211589 .56933596 .23095703 .58984377 C .2101237 .61067709 .18408203 .62109377 .15283203 .62109377 C .102376308 .62109377 .060221357 .5940755 .026367188 .54003909 L .010253906 .54785159 Z "/>
</symbol>
<use xlink:href="#font_c_16" transform="matrix(12,0,0,-12,534.4863,47.34375)"/>
</g>
<clipPath id="cp13">
<path d="M 0 0 L 612 0 L 612 792 L 0 792 Z " fill-rule="evenodd"/>
</clipPath>
<g clip-path="url(#cp13)">
<symbol id="font_c_57">
<path d="M .15136719 .6015625 L .15136719 .45458985 L .25585938 .45458985 L .25585938 .42041017 L .15136719 .42041017 L .15136719 .1303711 C .15136719 .10139974 .1554362 .08186849 .16357422 .071777347 C .17203777 .0616862 .18277996 .056640626 .19580078 .056640626 C .20654297 .056640626 .21695964 .059895833 .22705078 .06640625 C .23714192 .07324219 .24495442 .08317057 .25048829 .096191409 L .26953126 .096191409 C .25813804 .06429037 .24202474 .040201826 .2211914 .023925782 C .20035808 .007975261 .1788737 0 .15673828 0 C .14176433 0 .12711589 .0040690104 .11279297 .012207031 C .098470058 .020670573 .087890628 .032552083 .08105469 .047851564 C .07421875 .06347656 .07080078 .087402347 .07080078 .119628909 L .07080078 .42041017 L 0 .42041017 L 0 .43652345 C .017903647 .4436849 .036132814 .45572917 .0546875 .47265626 C .07356771 .48990885 .09033203 .5102539 .10498047 .5336914 C .112467449 .5460612 .12288412 .5686849 .13623047 .6015625 L .15136719 .6015625 Z "/>
</symbol>
<symbol id="font_c_48">
<path d="M .06933594 .29248048 C .069010417 .22607422 .085123699 .17399089 .11767578 .13623047 C .15022786 .098470058 .18847656 .079589847 .23242188 .079589847 C .26171876 .079589847 .28710938 .0875651 .30859376 .103515628 C .33040367 .119791667 .3486328 .14746094 .36328126 .18652344 L .37841798 .17675781 C .37158204 .13216146 .35172526 .09147135 .31884767 .0546875 C .28597007 .018229166 .24479167 0 .1953125 0 C .14160156 0 .09554037 .020833334 .057128908 .0625 C .019042969 .10449219 0 .1608073 0 .23144531 C 0 .30794273 .01953125 .36751304 .05859375 .41015626 C .09798177 .453125 .14729817 .47460938 .20654297 .47460938 C .2566732 .47460938 .29785157 .4580078 .33007813 .4248047 C .3623047 .3919271 .37841798 .347819 .37841798 .29248048 L .06933594 .29248048 M .06933594 .32080079 L .2763672 .32080079 C .2747396 .34944663 .27132163 .3696289 .26611329 .38134767 C .25797526 .3995768 .24576824 .41389976 .22949219 .4243164 C .21354167 .43473307 .19677735 .4399414 .17919922 .4399414 C .15218099 .4399414 .12792969 .42936198 .10644531 .40820313 C .08528646 .38736979 .072916667 .3582357 .06933594 .32080079 Z "/>
</symbol>
<symbol id="font_c_52">
<path d="M .2163086 .4741211 C .28401695 .4741211 .3383789 .44840495 .37939454 .39697267 C .41422526 .35302735 .43164063 .30257163 .43164063 .24560547 C .43164063 .2055664 .42203776 .16503906 .40283204 .12402344 C .3836263 .08300781 .35709635 .052083333 .3232422 .03125 C .28971354 .010416667 .25227867 0 .2109375 0 C .14355469 0 .09000651 .026855469 .05029297 .080566409 C .016764323 .1258138 0 .17659505 0 .23291016 C 0 .27392579 .0100911459 .31461589 .030273438 .35498048 C .05078125 .39567057 .07763672 .4256185 .110839847 .44482423 C .14404297 .46435548 .17919922 .4741211 .2163086 .4741211 M .20117188 .4423828 C .18391927 .4423828 .1665039 .43717448 .14892578 .4267578 C .13167317 .41666667 .11767578 .39876304 .106933597 .37304688 C .096191409 .34733073 .09082031 .31429038 .09082031 .27392579 C .09082031 .20882161 .10367838 .15266927 .12939453 .10546875 C .1554362 .05826823 .18961589 .03466797 .2319336 .03466797 C .26350913 .03466797 .28955079 .0476888 .3100586 .07373047 C .3305664 .09977213 .3408203 .14453125 .3408203 .20800781 C .3408203 .2874349 .32373048 .3499349 .28955079 .3955078 C .2664388 .4267578 .23697917 .4423828 .20117188 .4423828 Z "/>
</symbol>
<symbol id="font_c_56">
<path d="M .27148438 .4741211 L .27148438 .32177735 L .2553711 .32177735 C .2430013 .3696289 .22705078 .402181 .20751953 .4194336 C .1883138 .4366862 .16373699 .4453125 .13378906 .4453125 C .1110026 .4453125 .09261068 .43929038 .07861328 .4272461 C .06461588 .4152018 .057617189 .40185548 .057617189 .38720704 C .057617189 .36897788 .06282552 .35335288 .07324219 .34033204 C .083333339 .3269857 .10384115 .31282554 .13476563 .29785157 L .20605469 .2631836 C .2721354 .23095703 .30517579 .18847656 .30517579 .13574219 C .30517579 .095052089 .28971354 .06217448 .25878907 .037109376 C .22819011 .012369792 .19384766 0 .15576172 0 C .12841797 0 .09716797 .0048828127 .06201172 .0146484379 C .05126953 .017903647 .04248047 .01953125 .03564453 .01953125 C .028157553 .01953125 .022298178 .0152994799 .018066407 .0068359377 L .001953125 .0068359377 L .001953125 .1665039 L .018066407 .1665039 C .02718099 .12093099 .044596357 .08658854 .0703125 .06347656 C .09602865 .040364583 .12483724 .028808594 .15673828 .028808594 C .17919922 .028808594 .19742839 .03531901 .21142578 .048339845 C .2257487 .0616862 .23291016 .07763672 .23291016 .096191409 C .23291016 .118652347 .22493489 .13753255 .20898438 .15283203 C .19335938 .16813152 .16194661 .1875 .114746097 .2109375 C .06754557 .234375 .036621095 .25553385 .021972657 .27441407 C .0073242189 .29296876 0 .31640626 0 .34472657 C 0 .3815104 .012532552 .41227214 .037597658 .43701173 C .06298828 .4617513 .095703128 .4741211 .13574219 .4741211 C .15332031 .4741211 .17464192 .4703776 .19970703 .46289063 C .2163086 .4580078 .2273763 .4555664 .23291016 .4555664 C .23811849 .4555664 .2421875 .45670573 .24511719 .45898438 C .24804688 .46126304 .25146485 .4663086 .2553711 .4741211 L .27148438 .4741211 Z "/>
</symbol>
<symbol id="font_c_5a">
<path d="M 0 .4609375 L .1875 .4609375 L .1875 .4428711 C .17024739 .441569 .15885417 .43847657 .15332031 .43359376 C .14811199 .42871095 .14550781 .42171226 .14550781 .41259767 C .14550781 .4025065 .14827474 .39029948 .1538086 .37597657 L .24951172 .118652347 L .34570313 .328125 L .3203125 .39404298 C .3125 .41357423 .3022461 .42708335 .28955079 .4345703 C .2823893 .4391276 .26904298 .44189454 .24951172 .4428711 L .24951172 .4609375 L .46240235 .4609375 L .46240235 .4428711 C .43896485 .44189454 .42236329 .43766276 .41259767 .43017579 C .40608726 .42496745 .40283204 .41666667 .40283204 .40527345 C .40283204 .39876304 .40413413 .39208985 .40673829 .3852539 L .5083008 .12841797 L .60253909 .37597657 C .6090495 .3935547 .6123047 .4075521 .6123047 .41796876 C .6123047 .42415367 .6090495 .4296875 .60253909 .4345703 C .5963542 .43945313 .5839844 .44222007 .5654297 .4428711 L .5654297 .4609375 L .70654299 .4609375 L .70654299 .4428711 C .67822268 .4386393 .65738937 .4194336 .64404299 .3852539 L .4946289 0 L .47460938 0 L .36279298 .28564454 L .23242188 0 L .21435547 0 L .07080078 .37597657 C .061360677 .3997396 .052083333 .4156901 .04296875 .42382813 C .033854169 .43229167 .01953125 .4386393 0 .4428711 L 0 .4609375 Z "/>
</symbol>
<symbol id="font_c_4e">
<path d="M .15527344 .69433596 L .15527344 .24951172 L .26904298 .35302735 C .2931315 .37516276 .3071289 .38916017 .31103517 .39501954 C .3136393 .39892579 .3149414 .40283204 .3149414 .40673829 C .3149414 .4132487 .31217448 .41878257 .30664063 .42333985 C .30143229 .42822267 .29264323 .4309896 .28027345 .43164063 L .28027345 .44726563 L .47460938 .44726563 L .47460938 .43164063 C .44791667 .4309896 .4256185 .42692057 .40771485 .4194336 C .39013673 .41194663 .37076823 .39860026 .34960938 .37939454 L .23486328 .2734375 L .34960938 .12841797 C .3815104 .088378909 .40299479 .06298828 .4140625 .052246095 C .4296875 .036946615 .44335938 .027018229 .45507813 .022460938 C .46321617 .019205729 .4773763 .017578125 .4975586 .017578125 L .4975586 0 L .28027345 0 L .28027345 .017578125 C .29264323 .017903647 .300944 .01969401 .30517579 .022949219 C .30973307 .026529948 .31201173 .03141276 .31201173 .037597658 C .31201173 .045084638 .3055013 .057128908 .29248048 .07373047 L .15527344 .24902344 L .15527344 .10058594 C .15527344 .071614589 .15722656 .052571615 .16113281 .04345703 C .16536458 .03434245 .17122396 .027832032 .17871094 .023925782 C .18619792 .020019532 .20247396 .017903647 .22753906 .017578125 L .22753906 0 L 0 0 L 0 .017578125 C .022786459 .017578125 .0398763 .020345053 .05126953 .025878907 C .05810547 .029459635 .063313808 .03499349 .06689453 .04248047 C .071777347 .053222658 .07421875 .071777347 .07421875 .09814453 L .07421875 .5053711 C .07421875 .5571289 .07307943 .5887044 .07080078 .60009768 C .06852213 .6118164 .06477865 .6197917 .059570314 .62402346 C .05436198 .62858077 .047526044 .6308594 .0390625 .6308594 C .032226564 .6308594 .021972657 .62809249 .008300781 .6225586 L 0 .63964846 L .1328125 .69433596 L .15527344 .69433596 Z "/>
</symbol>
<symbol id="font_c_47">
<path d="M .31396485 .063964847 C .29215495 .041178388 .27083335 .024739584 .25 .0146484379 C .22916667 .0048828127 .20670574 0 .18261719 0 C .13378906 0 .091145839 .020345053 .0546875 .061035158 C .018229166 .10205078 0 .15462239 0 .21875 C 0 .2828776 .020182291 .34147135 .060546876 .39453126 C .10091146 .44791667 .15283203 .47460938 .2163086 .47460938 C .25569663 .47460938 .2882487 .4620768 .31396485 .43701173 L .31396485 .51953127 C .31396485 .570638 .31266276 .6020508 .3100586 .61376956 C .30777995 .6254883 .30403648 .63346359 .29882813 .6376953 C .29361979 .64192709 .28710938 .64404299 .27929688 .64404299 C .27083335 .64404299 .25960288 .6414388 .24560547 .63623049 L .23925781 .6533203 L .3725586 .7080078 L .39453126 .7080078 L .39453126 .19091797 C .39453126 .13850911 .39567057 .10644531 .39794923 .09472656 C .40055339 .083333339 .40445964 .07535807 .40966798 .07080078 C .4152018 .06624349 .42154948 .063964847 .42871095 .063964847 C .4375 .063964847 .44921876 .06673177 .4638672 .072265628 L .46923829 .05517578 L .33642579 0 L .31396485 0 L .31396485 .063964847 M .31396485 .09814453 L .31396485 .32861329 C .31201173 .3507487 .30615235 .370931 .29638673 .38916017 C .2866211 .4073893 .27360026 .4210612 .25732423 .43017579 C .2413737 .43961589 .2257487 .44433595 .21044922 .44433595 C .18180339 .44433595 .15625 .43147788 .13378906 .40576173 C .104166667 .37190757 .08935547 .32242839 .08935547 .25732423 C .08935547 .19156902 .10367838 .14111328 .13232422 .10595703 C .16097005 .071126308 .1928711 .053710939 .22802735 .053710939 C .25764976 .053710939 .28629557 .06852213 .31396485 .09814453 Z "/>
</symbol>
<symbol id="font_c_5c">
<path d="M 0 .66308596 L .2084961 .66308596 L .2084961 .64501956 L .19824219 .64501956 C .18359375 .64501956 .17252605 .64176437 .16503906 .6352539 C .15787761 .62906906 .15429688 .62125656 .15429688 .6118164 C .15429688 .5991211 .15966797 .58154299 .17041016 .55908206 L .27929688 .3334961 L .37939454 .5805664 C .38492839 .5939128 .3876953 .6070964 .3876953 .6201172 C .3876953 .62597659 .386556 .6303711 .38427735 .6333008 C .3816732 .63688156 .37760417 .63964846 .3720703 .64160159 C .36653648 .6438802 .35677085 .64501956 .34277345 .64501956 L .34277345 .66308596 L .48828126 .66308596 L .48828126 .64501956 C .47623698 .64371749 .46695964 .6411133 .46044923 .63720706 C .4539388 .6333008 .44677735 .62597659 .43896485 .6152344 C .43603517 .61067709 .4305013 .59814456 .42236329 .5776367 L .24023438 .13134766 C .22265625 .08805338 .19954427 .055338544 .17089844 .033203126 C .14257813 .011067708 .115234378 0 .08886719 0 C .06966146 0 .0538737 .005533854 .041503908 .016601563 C .029134116 .027669272 .022949219 .040364583 .022949219 .0546875 C .022949219 .068359378 .02734375 .079427089 .036132814 .087890628 C .045247396 .09602865 .057617189 .100097659 .07324219 .100097659 C .083984378 .100097659 .09863281 .09651693 .1171875 .08935547 C .13020833 .084472659 .13834636 .08203125 .14160156 .08203125 C .15136719 .08203125 .16194661 .08707682 .17333985 .09716797 C .1850586 .10725912 .19677735 .12679036 .2084961 .15576172 L .24023438 .23339844 L .079589847 .5708008 C .07470703 .5808919 .06689453 .5934245 .056152345 .60839846 C .048014326 .6197917 .041341146 .6274414 .036132814 .63134768 C .028645834 .63655599 .016601563 .6411133 0 .64501956 L 0 .66308596 Z "/>
</symbol>
<symbol id="font_c_11">
<path d="M .05419922 .10839844 C .069498699 .10839844 .08235677 .103027347 .09277344 .092285159 C .1031901 .08186849 .10839844 .06917318 .10839844 .05419922 C .10839844 .03922526 .103027347 .026367188 .092285159 .015625 C .08186849 .0052083337 .06917318 0 .05419922 0 C .03922526 0 .026367188 .0052083337 .015625 .015625 C .0052083337 .026367188 0 .03922526 0 .05419922 C 0 .069498699 .0052083337 .08235677 .015625 .09277344 C .026367188 .1031901 .03922526 .10839844 .05419922 .10839844 Z "/>
</symbol>
<use xlink:href="#font_c_57" transform="matrix(12,0,0,-12,72.11719,83.291019)"/>
<use xlink:href="#font_c_4b" transform="matrix(12,0,0,-12,75.41217,83.203128)"/>
<use xlink:href="#font_c_48" transform="matrix(12,0,0,-12,81.78131,83.36719)"/>
<use xlink:href="#font_c_3" transform="matrix(12,0,0,-12,86.664,83.203128)"/>
<use xlink:href="#font_c_50" transform="matrix(12,0,0,-12,89.76361,83.203128)"/>
<use xlink:href="#font_c_52" transform="matrix(12,0,0,-12,99.4043,83.36719)"/>
<use xlink:href="#font_c_51" transform="matrix(12,0,0,-12,105.07031,83.203128)"/>
<use xlink:href="#font_c_56" transform="matrix(12,0,0,-12,111.58594,83.36719)"/>
<use xlink:href="#font_c_57" transform="matrix(12,0,0,-12,115.78519,83.291019)"/>
<use xlink:href="#font_c_48" transform="matrix(12,0,0,-12,119.44931,83.36719)"/>
<use xlink:href="#font_c_55" transform="matrix(12,0,0,-12,124.40817,83.203128)"/>
<use xlink:href="#font_c_3" transform="matrix(12,0,0,-12,128.328,83.203128)"/>
<use xlink:href="#font_c_57" transform="matrix(12,0,0,-12,131.44519,83.291019)"/>
<use xlink:href="#font_c_4b" transform="matrix(12,0,0,-12,134.74018,83.203128)"/>
<use xlink:href="#font_c_44" transform="matrix(12,0,0,-12,141.09174,83.31445)"/>
<use xlink:href="#font_c_57" transform="matrix(12,0,0,-12,146.10919,83.291019)"/>
<use xlink:href="#font_c_3" transform="matrix(12,0,0,-12,149.328,83.203128)"/>
<use xlink:href="#font_c_5a" transform="matrix(12,0,0,-12,152.40418,83.36719)"/>
<use xlink:href="#font_c_48" transform="matrix(12,0,0,-12,161.43732,83.36719)"/>
<use xlink:href="#font_c_3" transform="matrix(12,0,0,-12,166.32,83.203128)"/>
<use xlink:href="#font_c_4e" transform="matrix(12,0,0,-12,169.41962,83.203128)"/>
<use xlink:href="#font_c_51" transform="matrix(12,0,0,-12,175.39032,83.203128)"/>
<use xlink:href="#font_c_52" transform="matrix(12,0,0,-12,181.7243,83.36719)"/>
<use xlink:href="#font_c_5a" transform="matrix(12,0,0,-12,187.39618,83.36719)"/>
<use xlink:href="#font_c_3" transform="matrix(12,0,0,-12,195.98401,83.203128)"/>
<use xlink:href="#font_c_57" transform="matrix(12,0,0,-12,199.1012,83.291019)"/>
<use xlink:href="#font_c_52" transform="matrix(12,0,0,-12,202.7243,83.36719)"/>
<use xlink:href="#font_c_47" transform="matrix(12,0,0,-12,208.71845,83.36719)"/>
<use xlink:href="#font_c_44" transform="matrix(12,0,0,-12,214.74774,83.31445)"/>
<use xlink:href="#font_c_5c" transform="matrix(12,0,0,-12,219.71833,85.79297)"/>
<use xlink:href="#font_c_11" transform="matrix(12,0,0,-12,225.70313,83.36719)"/>
<use xlink:href="#font_c_3" transform="matrix(12,0,0,-12,227.85352,83.203128)"/>
<use xlink:href="#font_c_37" transform="matrix(12,0,0,-12,231,83.203128)"/>
<use xlink:href="#font_c_4b" transform="matrix(12,0,0,-12,238.04489,83.203128)"/>
<use xlink:href="#font_c_48" transform="matrix(12,0,0,-12,244.41403,83.36719)"/>
<symbol id="font_e_24">
<path d="M .56396487 .6772461 L .5136719 .12646485 C .5110677 .100748699 .5097656 .08382162 .5097656 .075683597 C .5097656 .06266276 .51220706 .052734376 .51708987 .045898439 C .5232747 .036458333 .5315755 .029459635 .5419922 .024902344 C .5527344 .020345053 .570638 .018066407 .5957031 .018066407 L .59033206 0 L .32958985 0 L .33496095 .018066407 L .3461914 .018066407 C .36735026 .018066407 .38460288 .022623698 .39794923 .03173828 C .4073893 .037923177 .41471354 .048177083 .41992188 .0625 C .4235026 .07259115 .42692057 .096354167 .43017579 .13378906 L .43798829 .21777344 L .24853516 .21777344 L .18115235 .12646485 C .16585286 .10595703 .15625 .091145839 .15234375 .08203125 C .1484375 .07324219 .14648438 .064941409 .14648438 .057128908 C .14648438 .04671224 .15071614 .037760419 .15917969 .030273438 C .16764324 .022786459 .18164063 .018717448 .20117188 .018066407 L .19580078 0 L 0 0 L .0053710939 .018066407 C .029459635 .019042969 .05061849 .027018229 .068847659 .041992189 C .087402347 .057291669 .11490885 .08968099 .15136719 .13916016 L .546875 .6772461 L .56396487 .6772461 M .46728517 .51464846 L .27539063 .25341798 L .44189454 .25341798 L .46728517 .51464846 Z "/>
</symbol>
<symbol id="font_e_45">
<path d="M .26220704 .7060547 L .16601563 .36865235 C .19726563 .40120445 .22444661 .4235026 .2475586 .43554688 C .2709961 .44759117 .29541017 .45361329 .32080079 .45361329 C .35660807 .45361329 .38590495 .44173179 .4086914 .41796876 C .43147788 .39420573 .4428711 .36197917 .4428711 .32128907 C .4428711 .26888023 .42789714 .21663411 .39794923 .16455078 C .3680013 .11279297 .33040367 .07242838 .28515626 .04345703 C .23990886 .014485677 .1953125 0 .15136719 0 C .10221354 0 .051757814 .018391928 0 .05517578 L .1484375 .56640627 C .15983074 .60579428 .16552735 .62890627 .16552735 .6357422 C .16552735 .64420577 .16292317 .6505534 .15771485 .65478518 C .15022786 .66064456 .13916016 .6635742 .12451172 .6635742 C .11767578 .6635742 .10725912 .6624349 .09326172 .66015627 L .09326172 .67871096 L .26220704 .7060547 M .07324219 .049804689 C .10579427 .031901044 .13444011 .022949219 .15917969 .022949219 C .18782552 .022949219 .21744792 .033365888 .24804688 .05419922 C .27897135 .07535807 .30566407 .110839847 .328125 .16064453 C .35091148 .21044922 .3623047 .2607422 .3623047 .31152345 C .3623047 .34147135 .35481773 .36490885 .33984376 .38183595 C .3251953 .39876304 .30777995 .40722657 .28759767 .40722657 C .25732423 .40722657 .22770183 .39501954 .19873047 .37060548 C .16975911 .34651695 .14908855 .31282554 .13671875 .26953126 L .07324219 .049804689 Z "/>
</symbol>
<symbol id="font_e_52">
<path d="M .43310548 .30078126 C .43310548 .25195313 .42008464 .20361328 .39404298 .15576172 C .3683268 .107910159 .33235679 .06998698 .2861328 .041992189 C .23990886 .0139973959 .19498699 0 .15136719 0 C .106770839 0 .0703125 .014160156 .041992189 .04248047 C .0139973959 .071126308 0 .108072917 0 .15332031 C 0 .20117188 .013671875 .2491862 .041015626 .29736329 C .0686849 .34554038 .10546875 .3836263 .15136719 .4116211 C .19759114 .43961589 .2421875 .45361329 .28515626 .45361329 C .328125 .45361329 .363444 .43945313 .39111329 .4111328 C .41910807 .3828125 .43310548 .34602867 .43310548 .30078126 M .35205079 .33447267 C .35205079 .3647461 .3445638 .38785807 .32958985 .4038086 C .3149414 .42008464 .29589845 .42822267 .27246095 .42822267 C .22460938 .42822267 .1805013 .39388023 .14013672 .3251953 C .100097659 .25683595 .080078128 .18880208 .080078128 .12109375 C .080078128 .09016927 .087890628 .06624349 .103515628 .049316408 C .119140628 .032714845 .13883464 .024414063 .16259766 .024414063 C .2084961 .024414063 .25146485 .05843099 .2915039 .12646485 C .3318685 .19482422 .35205079 .26416017 .35205079 .33447267 Z "/>
</symbol>
<symbol id="font_e_58">
<path d="M .44140626 .44189454 L .3564453 .1508789 C .34375 .10758463 .33740235 .08024088 .33740235 .068847659 C .33740235 .06298828 .3383789 .05859375 .34033204 .055664064 C .3426107 .053059896 .34554038 .051757814 .3491211 .051757814 C .35465495 .051757814 .3606771 .05419922 .3671875 .05908203 C .37402345 .06429037 .39095054 .084472659 .41796876 .119628909 L .4326172 .10839844 C .40690104 .067708339 .38053385 .037760419 .35351563 .018554688 C .33561198 .006184896 .31835938 0 .3017578 0 C .2890625 0 .27913413 .0035807293 .27197267 .0107421879 C .2648112 .017903647 .26123048 .02718099 .26123048 .03857422 C .26123048 .049641927 .26334635 .06429037 .26757813 .08251953 C .27278648 .10660807 .28759767 .15901692 .31201173 .2397461 C .2566732 .14892578 .21028646 .08626302 .17285156 .051757814 C .13574219 .017252604 .10123698 0 .06933594 0 C .05436198 0 .041666669 .0052083337 .03125 .015625 C .020833334 .026041666 .015625 .03922526 .015625 .05517578 C .015625 .079589847 .022786459 .11702474 .037109376 .16748047 L .079589847 .31835938 C .09000651 .3544922 .095214847 .37695313 .095214847 .3857422 C .095214847 .38964845 .09375 .39290367 .09082031 .3955078 C .08821615 .3984375 .08528646 .39990235 .08203125 .39990235 C .07519531 .39990235 .068359378 .39746095 .061523439 .39257813 C .0546875 .3876953 .03922526 .3696289 .015136719 .3383789 L 0 .3491211 C .024414063 .3868815 .05029297 .41471354 .07763672 .4326172 C .098470058 .4466146 .11767578 .45361329 .1352539 .45361329 C .14729817 .45361329 .1570638 .44970704 .16455078 .44189454 C .17236328 .43440757 .17626953 .42464195 .17626953 .41259767 C .17626953 .39501954 .16975911 .36360679 .15673828 .31835938 L .110839847 .16064453 C .09814453 .11767578 .091796878 .09049479 .091796878 .07910156 C .091796878 .072916667 .09375 .067871097 .09765625 .063964847 C .10188802 .060384115 .107421878 .05859375 .11425781 .05859375 C .125 .05859375 .13899739 .063964847 .15625 .07470703 C .17350261 .08544922 .19645183 .10921224 .22509766 .1459961 C .254069 .18310547 .27783204 .21777344 .29638673 .25 C .31526695 .2825521 .33528648 .33414714 .3564453 .40478517 L .3671875 .44189454 L .44140626 .44189454 Z "/>
</symbol>
<symbol id="font_e_57">
<path d="M .21875 .57470706 L .18066406 .44189454 L .25732423 .44189454 L .24902344 .4111328 L .17285156 .4111328 L .08886719 .123046878 C .0797526 .0921224 .07519531 .07210287 .07519531 .06298828 C .07519531 .057454427 .0764974 .053222658 .07910156 .05029297 C .08170573 .04736328 .08479818 .045898439 .088378909 .045898439 C .09651693 .045898439 .10725912 .05159505 .12060547 .06298828 C .12841797 .069498699 .14583333 .08951823 .17285156 .123046878 L .18896485 .110839847 C .15901692 .067220058 .13069661 .036458333 .104003909 .018554688 C .08577474 .006184896 .06738281 0 .048828126 0 C .034505208 0 .022786459 .0043945314 .013671875 .013183594 C .0045572917 .022298178 0 .033854169 0 .047851564 C 0 .06542969 .0052083337 .092285159 .015625 .12841797 L .09716797 .4111328 L .0234375 .4111328 L .028320313 .43017579 C .0641276 .4399414 .09391276 .4544271 .11767578 .4736328 C .1414388 .49316407 .16796875 .52685549 .19726563 .57470706 L .21875 .57470706 Z "/>
</symbol>
<use xlink:href="#font_e_24" transform="matrix(12,0,0,-12,251.92383,83.203128)"/>
<use xlink:href="#font_e_45" transform="matrix(12,0,0,-12,260.15818,83.34375)"/>
<use xlink:href="#font_e_52" transform="matrix(12,0,0,-12,266.19334,83.34375)"/>
<use xlink:href="#font_e_58" transform="matrix(12,0,0,-12,272.19334,83.34375)"/>
<use xlink:href="#font_e_57" transform="matrix(12,0,0,-12,278.33396,83.34375)"/>
<symbol id="font_c_53">
<path d="M .0024414063 .6166992 L .14013672 .6723633 L .1586914 .6723633 L .1586914 .5678711 C .18180339 .6072591 .20491536 .6347656 .22802735 .6503906 C .25146485 .6663411 .27604167 .6743164 .3017578 .6743164 C .3466797 .6743164 .3841146 .6567383 .4140625 .62158206 C .45084635 .5786133 .46923829 .5226237 .46923829 .45361329 C .46923829 .37646485 .44710288 .31266276 .40283204 .26220704 C .3663737 .22086589 .32047526 .20019531 .26513673 .20019531 C .24104817 .20019531 .22021485 .20361328 .20263672 .21044922 C .18961589 .21533203 .17496746 .22509766 .1586914 .2397461 L .1586914 .103515628 C .1586914 .072916667 .16048177 .053548177 .1640625 .045410158 C .16796875 .036946615 .17447917 .030273438 .18359375 .025390625 C .19303386 .020507813 .20996094 .018066407 .234375 .018066407 L .234375 0 L 0 0 L 0 .018066407 L .012207031 .018066407 C .030110678 .017740885 .045410158 .021158854 .05810547 .028320313 C .06429037 .031901044 .069010417 .037760419 .072265628 .045898439 C .07584635 .053710939 .07763672 .07389323 .07763672 .10644531 L .07763672 .5292969 C .07763672 .55826827 .07633463 .57666018 .07373047 .58447268 C .071126308 .59228518 .06689453 .59814456 .061035158 .6020508 C .0555013 .60595706 .047851564 .60791018 .038085939 .60791018 C .030273438 .60791018 .020345053 .60563156 .008300781 .6010742 L .0024414063 .6166992 M .1586914 .5390625 L .1586914 .3720703 C .1586914 .3359375 .16015625 .31217448 .16308594 .30078126 C .16764324 .28190104 .17871094 .26529948 .19628906 .25097657 C .2141927 .23665364 .23665364 .22949219 .26367188 .22949219 C .29622398 .22949219 .32259117 .2421875 .34277345 .26757813 C .36914063 .30078126 .38232423 .3474935 .38232423 .40771485 C .38232423 .47607423 .36735026 .5286458 .33740235 .5654297 C .316569 .5908203 .29182945 .6035156 .2631836 .6035156 C .2475586 .6035156 .23209636 .5996094 .21679688 .5917969 C .20507813 .5859375 .18570964 .5683594 .1586914 .5390625 Z "/>
</symbol>
<symbol id="font_c_4a">
<path d="M .12109375 .37890626 C .09375 .3922526 .072753909 .41080729 .05810547 .4345703 C .04345703 .45865885 .036132814 .4851888 .036132814 .51416018 C .036132814 .55843099 .052734376 .5965169 .0859375 .62841799 C .11946615 .66031906 .16227214 .67626956 .21435547 .67626956 C .2569987 .67626956 .2939453 .66585287 .3251953 .64501956 L .41992188 .64501956 C .43391929 .64501956 .44205729 .64453127 .44433595 .6435547 C .4466146 .6429036 .4482422 .64160159 .44921876 .63964846 C .45117188 .63671877 .45214845 .63151046 .45214845 .62402346 C .45214845 .6155599 .45133464 .6097005 .44970704 .6064453 C .44873048 .6048177 .4469401 .6035156 .44433595 .60253909 C .44205729 .6015625 .43391929 .6010742 .41992188 .6010742 L .3618164 .6010742 C .38004557 .5776367 .38916017 .5476888 .38916017 .51123049 C .38916017 .4695638 .37320964 .43391929 .3413086 .40429688 C .30940757 .37467448 .26660157 .35986329 .21289063 .35986329 C .1907552 .35986329 .16813152 .3631185 .14501953 .3696289 C .13069661 .35725913 .12093099 .34635417 .115722659 .33691407 C .110839847 .32779948 .10839844 .31998698 .10839844 .31347657 C .10839844 .30794273 .1110026 .30257163 .11621094 .29736329 C .12174479 .29215495 .13232422 .28841148 .14794922 .2861328 C .1570638 .28483073 .17985027 .2836914 .2163086 .28271485 C .28336589 .28108726 .3268229 .2788086 .3466797 .2758789 C .37695313 .27164714 .40104167 .26041667 .4189453 .2421875 C .43717448 .22395833 .44628907 .20149739 .44628907 .17480469 C .44628907 .13802083 .42903648 .103515628 .39453126 .07128906 C .34375 .023763022 .2775065 0 .19580078 0 C .13297527 0 .07991537 .014160156 .036621095 .04248047 C .012207031 .05875651 0 .075683597 0 .09326172 C 0 .10107422 .0017903646 .10888672 .0053710939 .11669922 C .010904948 .12874349 .022298178 .14550781 .03955078 .16699219 C .041829427 .16992188 .05843099 .1875 .08935547 .21972656 C .07242838 .2298177 .060384115 .23876953 .053222658 .24658203 C .04638672 .25472007 .04296875 .26383464 .04296875 .27392579 C .04296875 .285319 .047526044 .29866538 .056640626 .31396485 C .06608073 .3292643 .0875651 .35091148 .12109375 .37890626 M .20605469 .65283206 C .18196614 .65283206 .16178386 .6432292 .14550781 .62402346 C .12923177 .6048177 .12109375 .5753581 .12109375 .53564456 C .12109375 .48421226 .13216146 .44433595 .15429688 .41601563 C .17122396 .39453126 .19270833 .38378907 .21875 .38378907 C .24348958 .38378907 .26383464 .3930664 .27978517 .4116211 C .2957357 .43017579 .30371095 .4593099 .30371095 .49902345 C .30371095 .55078127 .29248048 .5913086 .27001954 .62060549 C .25341798 .64208987 .23209636 .65283206 .20605469 .65283206 M .11621094 .21582031 C .10091146 .19921875 .08935547 .18375652 .08154297 .1694336 C .07373047 .15511067 .06982422 .14192708 .06982422 .12988281 C .06982422 .11425781 .07926432 .10058594 .09814453 .08886719 C .13069661 .0686849 .17773438 .05859375 .23925781 .05859375 C .29785157 .05859375 .34098307 .069010417 .36865235 .08984375 C .39664714 .11035156 .41064454 .13232422 .41064454 .15576172 C .41064454 .1726888 .40234376 .18473308 .3857422 .19189453 C .3688151 .19905599 .33528648 .20328777 .28515626 .20458985 C .21191406 .20654297 .15559896 .21028646 .11621094 .21582031 Z "/>
</symbol>
<symbol id="font_c_46">
<path d="M .37695313 .18359375 C .36490885 .12467448 .3413086 .07926432 .30615235 .04736328 C .2709961 .01578776 .23209636 0 .18945313 0 C .13867188 0 .09440104 .021321616 .056640626 .063964847 C .018880209 .10660807 0 .16422527 0 .2368164 C 0 .3071289 .020833334 .3642578 .0625 .40820313 C .10449219 .45214845 .15478516 .4741211 .2133789 .4741211 C .25732423 .4741211 .29345704 .46240235 .32177735 .43896485 C .35009767 .41585288 .3642578 .3917643 .3642578 .36669923 C .3642578 .35432945 .3601888 .34423829 .35205079 .33642579 C .34423829 .3289388 .33317057 .3251953 .31884767 .3251953 C .29964195 .3251953 .28515626 .33138023 .27539063 .34375 C .26985679 .35058595 .26611329 .36360679 .26416017 .3828125 C .26253257 .40201823 .25602214 .41666667 .2446289 .4267578 C .23323567 .43652345 .21744792 .44140626 .19726563 .44140626 C .16471355 .44140626 .13850911 .42936198 .118652347 .40527345 C .092285159 .3733724 .07910156 .33121745 .07910156 .2788086 C .07910156 .22542317 .0921224 .17822266 .11816406 .13720703 C .14453125 .09651693 .18001302 .076171878 .22460938 .076171878 C .2565104 .076171878 .28515626 .08707682 .31054688 .10888672 C .32845054 .12386068 .34586589 .15104167 .36279298 .19042969 L .37695313 .18359375 Z "/>
</symbol>
<symbol id="font_c_26">
<path d="M .56591799 .6923828 L .5810547 .46728517 L .56591799 .46728517 C .54573568 .53466799 .51692709 .5831706 .4794922 .61279299 C .44205729 .64241537 .3971354 .65722659 .34472657 .65722659 C .30078126 .65722659 .26106773 .6459961 .22558594 .62353518 C .19010417 .6013997 .16210938 .56591799 .14160156 .51708987 C .12141927 .46826173 .111328128 .4075521 .111328128 .33496095 C .111328128 .2750651 .12093099 .22314453 .14013672 .17919922 C .15934246 .1352539 .18815105 .1015625 .2265625 .078125 C .26529948 .0546875 .30940757 .04296875 .35888673 .04296875 C .40185548 .04296875 .43977867 .052083333 .47265626 .0703125 C .5055339 .08886719 .5416667 .12548828 .5810547 .18017578 L .5961914 .17041016 C .5629883 .11149088 .5242513 .068359378 .47998048 .041015626 C .43570964 .013671875 .38313804 0 .32226563 0 C .21256511 0 .12760417 .040690107 .06738281 .12207031 C .022460938 .18261719 0 .25390626 0 .3359375 C 0 .40201823 .014811198 .46272788 .044433595 .5180664 C .07405599 .57340499 .114746097 .61621096 .1665039 .6464844 C .21858724 .6770833 .27539063 .6923828 .33691407 .6923828 C .38476563 .6923828 .43196617 .68066409 .47851563 .65722659 C .4921875 .6500651 .5019531 .6464844 .5078125 .6464844 C .51660159 .6464844 .5242513 .64957687 .5307617 .6557617 C .5392253 .6645508 .5452474 .6767578 .5488281 .6923828 L .56591799 .6923828 Z "/>
</symbol>
<symbol id="font_c_45">
<path d="M .15625 .38378907 C .19954427 .4440104 .24625652 .4741211 .29638673 .4741211 C .34228517 .4741211 .38232423 .4544271 .4165039 .41503907 C .4506836 .37597657 .46777345 .32242839 .46777345 .25439454 C .46777345 .17496746 .44140626 .1110026 .38867188 .0625 C .34342448 .020833334 .29296876 0 .23730469 0 C .21126302 0 .18473308 .0047200524 .15771485 .014160156 C .13102214 .02360026 .10367838 .037760419 .075683597 .056640626 L .075683597 .52001956 C .075683597 .5708008 .07438151 .6020508 .071777347 .61376956 C .069498699 .6254883 .06575521 .63346359 .060546876 .6376953 C .055338544 .64192709 .048828126 .64404299 .041015626 .64404299 C .031901044 .64404299 .020507813 .6414388 .0068359377 .63623049 L 0 .6533203 L .13427735 .7080078 L .15625 .7080078 L .15625 .38378907 M .15625 .35253907 L .15625 .08496094 C .17285156 .0686849 .1899414 .056315107 .20751953 .047851564 C .22542317 .039713544 .24365235 .03564453 .26220704 .03564453 C .29182945 .03564453 .31933595 .051920576 .34472657 .084472659 C .37044273 .11702474 .38330079 .16438802 .38330079 .2265625 C .38330079 .28385417 .37044273 .32779948 .34472657 .35839845 C .31933595 .3893229 .2903646 .40478517 .2578125 .40478517 C .24055989 .40478517 .2233073 .40039063 .20605469 .39160157 C .19303386 .38509117 .1764323 .3720703 .15625 .35253907 Z "/>
</symbol>
<use xlink:href="#font_c_53" transform="matrix(12,0,0,-12,284.1328,85.76953)"/>
<use xlink:href="#font_c_44" transform="matrix(12,0,0,-12,290.60157,83.31445)"/>
<use xlink:href="#font_c_4a" transform="matrix(12,0,0,-12,295.85926,85.79297)"/>
<use xlink:href="#font_c_48" transform="matrix(12,0,0,-12,301.94715,83.36719)"/>
<use xlink:href="#font_c_3" transform="matrix(12,0,0,-12,306.82984,83.203128)"/>
<use xlink:href="#font_c_47" transform="matrix(12,0,0,-12,310.22828,83.36719)"/>
<use xlink:href="#font_c_48" transform="matrix(12,0,0,-12,316.27516,83.36719)"/>
<use xlink:href="#font_c_57" transform="matrix(12,0,0,-12,321.27503,83.291019)"/>
<use xlink:href="#font_c_44" transform="matrix(12,0,0,-12,324.92158,83.31445)"/>
<use xlink:href="#font_c_4c" transform="matrix(12,0,0,-12,330.1734,83.203128)"/>
<use xlink:href="#font_c_4f" transform="matrix(12,0,0,-12,333.51527,83.203128)"/>
<use xlink:href="#font_c_56" transform="matrix(12,0,0,-12,337.07978,83.36719)"/>
<use xlink:href="#font_c_3" transform="matrix(12,0,0,-12,341.16184,83.203128)"/>
<use xlink:href="#font_c_57" transform="matrix(12,0,0,-12,344.27903,83.291019)"/>
<use xlink:href="#font_c_4b" transform="matrix(12,0,0,-12,347.574,83.203128)"/>
<use xlink:href="#font_c_48" transform="matrix(12,0,0,-12,353.94316,83.36719)"/>
<use xlink:href="#font_c_3" transform="matrix(12,0,0,-12,358.82585,83.203128)"/>
<use xlink:href="#font_c_46" transform="matrix(12,0,0,-12,362.236,83.36719)"/>
<use xlink:href="#font_c_4b" transform="matrix(12,0,0,-12,367.23,83.203128)"/>
<use xlink:href="#font_c_44" transform="matrix(12,0,0,-12,373.58158,83.31445)"/>
<use xlink:href="#font_c_55" transform="matrix(12,0,0,-12,378.558,83.203128)"/>
<use xlink:href="#font_c_44" transform="matrix(12,0,0,-12,382.90559,83.31445)"/>
<use xlink:href="#font_c_46" transform="matrix(12,0,0,-12,388.216,83.36719)"/>
<use xlink:href="#font_c_57" transform="matrix(12,0,0,-12,393.25105,83.291019)"/>
<use xlink:href="#font_c_48" transform="matrix(12,0,0,-12,396.91517,83.36719)"/>
<use xlink:href="#font_c_55" transform="matrix(12,0,0,-12,401.87403,83.203128)"/>
<use xlink:href="#font_c_4c" transform="matrix(12,0,0,-12,406.14543,83.203128)"/>
<use xlink:href="#font_c_56" transform="matrix(12,0,0,-12,409.7158,83.36719)"/>
<use xlink:href="#font_c_57" transform="matrix(12,0,0,-12,413.91505,83.291019)"/>
<use xlink:href="#font_c_4c" transform="matrix(12,0,0,-12,417.4854,83.203128)"/>
<use xlink:href="#font_c_46" transform="matrix(12,0,0,-12,420.88,83.36719)"/>
<use xlink:href="#font_c_56" transform="matrix(12,0,0,-12,426.3838,83.36719)"/>
<use xlink:href="#font_c_3" transform="matrix(12,0,0,-12,430.46586,83.203128)"/>
<use xlink:href="#font_c_57" transform="matrix(12,0,0,-12,433.58305,83.291019)"/>
<use xlink:href="#font_c_4b" transform="matrix(12,0,0,-12,436.87803,83.203128)"/>
<use xlink:href="#font_c_44" transform="matrix(12,0,0,-12,443.22959,83.31445)"/>
<use xlink:href="#font_c_57" transform="matrix(12,0,0,-12,448.24705,83.291019)"/>
<use xlink:href="#font_c_3" transform="matrix(12,0,0,-12,451.46586,83.203128)"/>
<use xlink:href="#font_c_57" transform="matrix(12,0,0,-12,454.58305,83.291019)"/>
<use xlink:href="#font_c_4b" transform="matrix(12,0,0,-12,457.87803,83.203128)"/>
<use xlink:href="#font_c_48" transform="matrix(12,0,0,-12,464.24717,83.36719)"/>
<use xlink:href="#font_c_3" transform="matrix(12,0,0,-12,469.12986,83.203128)"/>
<use xlink:href="#font_c_26" transform="matrix(12,0,0,-12,472.56346,83.384769)"/>
<use xlink:href="#font_c_4b" transform="matrix(12,0,0,-12,480.21003,83.203128)"/>
<use xlink:href="#font_c_58" transform="matrix(12,0,0,-12,486.14558,83.36719)"/>
<use xlink:href="#font_c_53" transform="matrix(12,0,0,-12,492.09284,85.76953)"/>
<use xlink:href="#font_c_44" transform="matrix(12,0,0,-12,498.56159,83.31445)"/>
<use xlink:href="#font_c_46" transform="matrix(12,0,0,-12,503.872,83.36719)"/>
<use xlink:href="#font_c_44" transform="matrix(12,0,0,-12,509.2176,83.31445)"/>
<use xlink:href="#font_c_45" transform="matrix(12,0,0,-12,514.08859,83.36719)"/>
<use xlink:href="#font_c_55" transform="matrix(12,0,0,-12,520.19406,83.203128)"/>
<use xlink:href="#font_c_44" transform="matrix(12,0,0,-12,524.5416,83.31445)"/>
<symbol id="font_c_5b">
<path d="M 0 .44726563 L .21044922 .44726563 L .21044922 .42919923 C .19710286 .42919923 .18766277 .42692057 .1821289 .42236329 C .17692058 .417806 .1743164 .41178385 .1743164 .40429688 C .1743164 .39648438 .18001302 .3844401 .19140625 .36816407 C .19498699 .36295573 .20035808 .35481773 .20751953 .34375 L .23925781 .29296876 L .2758789 .34375 C .2993164 .37597657 .31103517 .39632163 .31103517 .40478517 C .31103517 .4116211 .30826823 .41731773 .30273438 .421875 C .29720054 .4267578 .2882487 .42919923 .2758789 .42919923 L .2758789 .44726563 L .4272461 .44726563 L .4272461 .42919923 C .41129557 .42822267 .39746095 .42382813 .3857422 .41601563 C .36979167 .4049479 .34798179 .38085938 .3203125 .34375 L .25927735 .26220704 L .37060548 .10205078 C .39794923 .06266276 .41748048 .03889974 .42919923 .030761719 C .44091798 .022949219 .4560547 .018554688 .47460938 .017578125 L .47460938 0 L .26367188 0 L .26367188 .017578125 C .2783203 .017578125 .28971354 .020833334 .29785157 .02734375 C .30403648 .031901044 .3071289 .037923177 .3071289 .045410158 C .3071289 .052897138 .29671226 .071777347 .2758789 .10205078 L .21044922 .1977539 L .13867188 .10205078 C .11653646 .07242838 .10546875 .05485026 .10546875 .049316408 C .10546875 .041503908 .10904948 .03434245 .11621094 .027832032 C .123697917 .021647135 .13476563 .018229166 .14941406 .017578125 L .14941406 0 L .0034179688 0 L .0034179688 .017578125 C .015136719 .019205729 .025390625 .02327474 .034179689 .029785157 C .04654948 .03922526 .06738281 .063313808 .09667969 .10205078 L .19042969 .2265625 L .10546875 .34960938 C .08138021 .38476563 .06266276 .40673829 .049316408 .41552735 C .036295576 .42464195 .019856772 .42919923 0 .42919923 L 0 .44726563 Z "/>
</symbol>
<symbol id="font_c_49">
<path d="M .16748047 .41210938 L .16748047 .11816406 C .16748047 .0764974 .17203777 .050130208 .18115235 .0390625 C .19319661 .024739584 .20930989 .017578125 .22949219 .017578125 L .27001954 .017578125 L .27001954 0 L .0029296876 0 L .0029296876 .017578125 L .022949219 .017578125 C .03597005 .017578125 .047851564 .020833334 .05859375 .02734375 C .06933594 .033854169 .076660159 .04264323 .080566409 .053710939 C .08479818 .06477865 .08691406 .08626302 .08691406 .11816406 L .08691406 .41210938 L 0 .41210938 L 0 .44726563 L .08691406 .44726563 L .08691406 .4765625 C .08691406 .5211589 .09407552 .55891928 .10839844 .58984377 C .12272135 .62076827 .14453125 .6456706 .17382813 .6645508 C .20345052 .68375656 .23665364 .6933594 .2734375 .6933594 C .3076172 .6933594 .33902995 .6822917 .36767579 .66015627 C .386556 .6455078 .3959961 .62906906 .3959961 .61083987 C .3959961 .6010742 .3917643 .5917969 .38330079 .5830078 C .37483726 .57454428 .36572267 .5703125 .35595704 .5703125 C .34847007 .5703125 .34049479 .5729167 .33203126 .578125 C .32389323 .5836589 .3138021 .59521487 .3017578 .61279299 C .28971354 .6306966 .27864585 .6427409 .2685547 .6489258 C .25846354 .65511068 .24723308 .6582031 .23486328 .6582031 C .21988933 .6582031 .20719402 .6541341 .19677735 .6459961 C .18636067 .6381836 .1788737 .6258138 .1743164 .6088867 C .16975911 .59228518 .16748047 .5491536 .16748047 .4794922 L .16748047 .44726563 L .28271485 .44726563 L .28271485 .41210938 L .16748047 .41210938 Z "/>
</symbol>
<use xlink:href="#font_c_4b" transform="matrix(12,0,0,-12,72.07617,110.80078)"/>
<use xlink:href="#font_c_44" transform="matrix(12,0,0,-12,78.427738,110.91211)"/>
<use xlink:href="#font_c_56" transform="matrix(12,0,0,-12,83.91394,110.96484)"/>
<use xlink:href="#font_c_3" transform="matrix(12,0,0,-12,87.996,110.80078)"/>
<use xlink:href="#font_c_57" transform="matrix(12,0,0,-12,91.11319,110.88867)"/>
<use xlink:href="#font_c_44" transform="matrix(12,0,0,-12,94.759738,110.91211)"/>
<use xlink:href="#font_c_4e" transform="matrix(12,0,0,-12,99.75961,110.80078)"/>
<use xlink:href="#font_c_48" transform="matrix(12,0,0,-12,106.105319,110.96484)"/>
<use xlink:href="#font_c_51" transform="matrix(12,0,0,-12,111.05831,110.80078)"/>
<use xlink:href="#font_c_f" transform="matrix(12,0,0,-12,117.63253,112.79883)"/>
<use xlink:href="#font_c_3" transform="matrix(12,0,0,-12,119.988,110.80078)"/>
<use xlink:href="#font_c_4a" transform="matrix(12,0,0,-12,123.34542,113.390628)"/>
<use xlink:href="#font_c_4c" transform="matrix(12,0,0,-12,129.33957,110.80078)"/>
<use xlink:href="#font_c_59" transform="matrix(12,0,0,-12,132.42362,110.96484)"/>
<use xlink:href="#font_c_4c" transform="matrix(12,0,0,-12,138.67557,110.80078)"/>
<use xlink:href="#font_c_51" transform="matrix(12,0,0,-12,141.73032,110.80078)"/>
<use xlink:href="#font_c_4a" transform="matrix(12,0,0,-12,148.01743,113.390628)"/>
<use xlink:href="#font_c_3" transform="matrix(12,0,0,-12,153.66,110.80078)"/>
<use xlink:href="#font_c_55" transform="matrix(12,0,0,-12,156.73618,110.80078)"/>
<use xlink:href="#font_c_48" transform="matrix(12,0,0,-12,161.10132,110.96484)"/>
<use xlink:href="#font_c_44" transform="matrix(12,0,0,-12,166.41175,110.91211)"/>
<use xlink:href="#font_c_47" transform="matrix(12,0,0,-12,171.71044,110.96484)"/>
<use xlink:href="#font_c_48" transform="matrix(12,0,0,-12,177.75731,110.96484)"/>
<use xlink:href="#font_c_55" transform="matrix(12,0,0,-12,182.71617,110.80078)"/>
<use xlink:href="#font_c_56" transform="matrix(12,0,0,-12,187.22194,110.96484)"/>
<use xlink:href="#font_c_3" transform="matrix(12,0,0,-12,191.304,110.80078)"/>
<use xlink:href="#font_c_44" transform="matrix(12,0,0,-12,194.73174,110.91211)"/>
<use xlink:href="#font_c_3" transform="matrix(12,0,0,-12,199.632,110.80078)"/>
<use xlink:href="#font_c_57" transform="matrix(12,0,0,-12,202.74919,110.88867)"/>
<use xlink:href="#font_c_4b" transform="matrix(12,0,0,-12,206.04418,110.80078)"/>
<use xlink:href="#font_c_52" transform="matrix(12,0,0,-12,212.3723,110.96484)"/>
<use xlink:href="#font_c_55" transform="matrix(12,0,0,-12,218.04418,110.80078)"/>
<use xlink:href="#font_c_52" transform="matrix(12,0,0,-12,222.3683,110.96484)"/>
<use xlink:href="#font_c_58" transform="matrix(12,0,0,-12,227.97573,110.96484)"/>
<use xlink:href="#font_c_4a" transform="matrix(12,0,0,-12,234.32143,113.390628)"/>
<use xlink:href="#font_c_4b" transform="matrix(12,0,0,-12,240.04018,110.80078)"/>
<use xlink:href="#font_c_3" transform="matrix(12,0,0,-12,245.964,110.80078)"/>
<use xlink:href="#font_c_46" transform="matrix(12,0,0,-12,249.37416,110.96484)"/>
<use xlink:href="#font_c_52" transform="matrix(12,0,0,-12,254.6963,110.96484)"/>
<use xlink:href="#font_c_51" transform="matrix(12,0,0,-12,260.3623,110.80078)"/>
<use xlink:href="#font_c_57" transform="matrix(12,0,0,-12,266.4092,110.88867)"/>
<use xlink:href="#font_c_48" transform="matrix(12,0,0,-12,270.07334,110.96484)"/>
<use xlink:href="#font_c_5b" transform="matrix(12,0,0,-12,275.11424,110.80078)"/>
<use xlink:href="#font_c_57" transform="matrix(12,0,0,-12,281.0732,110.88867)"/>
<use xlink:href="#font_c_3" transform="matrix(12,0,0,-12,284.29203,110.80078)"/>
<use xlink:href="#font_c_52" transform="matrix(12,0,0,-12,287.69633,110.96484)"/>
<use xlink:href="#font_c_49" transform="matrix(12,0,0,-12,293.7549,110.80078)"/>
<use xlink:href="#font_c_3" transform="matrix(12,0,0,-12,297.28804,110.80078)"/>
<use xlink:href="#font_c_5a" transform="matrix(12,0,0,-12,300.3642,110.96484)"/>
<use xlink:href="#font_c_4b" transform="matrix(12,0,0,-12,309.0282,110.80078)"/>
<use xlink:href="#font_c_44" transform="matrix(12,0,0,-12,315.37977,110.91211)"/>
<use xlink:href="#font_c_57" transform="matrix(12,0,0,-12,320.39723,110.88867)"/>
<symbol id="font_c_29">
<path d="M .18847656 .62597659 L .18847656 .36572267 L .30908204 .36572267 C .3367513 .36572267 .3569336 .37174479 .3696289 .38378907 C .38264976 .39615885 .39127604 .42041017 .3955078 .45654298 L .41357423 .45654298 L .41357423 .23242188 L .3955078 .23242188 C .39518229 .25813804 .3917643 .27701823 .3852539 .2890625 C .379069 .30110679 .37027995 .3100586 .35888673 .31591798 C .347819 .32210288 .33121745 .3251953 .30908204 .3251953 L .18847656 .3251953 L .18847656 .1171875 C .18847656 .08365885 .19059246 .061523439 .19482422 .05078125 C .19807942 .04264323 .20491536 .03564453 .21533203 .029785157 C .22965496 .021972657 .2446289 .018066407 .2602539 .018066407 L .2841797 .018066407 L .2841797 0 L 0 0 L 0 .018066407 L .0234375 .018066407 C .05078125 .018066407 .07063802 .026041666 .08300781 .041992189 C .09082031 .052408857 .09472656 .07747396 .09472656 .1171875 L .09472656 .5449219 C .09472656 .5784505 .09261068 .60058596 .088378909 .6113281 C .085123699 .6194661 .07845052 .62646487 .068359378 .6323242 C .05436198 .6401367 .03938802 .64404299 .0234375 .64404299 L 0 .64404299 L 0 .6621094 L .49267579 .6621094 L .49902345 .51660159 L .4819336 .51660159 C .47347007 .54752609 .46354167 .5701497 .45214845 .58447268 C .44108073 .5991211 .4272461 .6097005 .41064454 .61621096 C .3943685 .6227214 .36897788 .62597659 .33447267 .62597659 L .18847656 .62597659 Z "/>
</symbol>
<use xlink:href="#font_c_57" transform="matrix(12,0,0,-12,326.70704,110.88867)"/>
<use xlink:href="#font_c_4b" transform="matrix(12,0,0,-12,330.002,110.80078)"/>
<use xlink:href="#font_c_48" transform="matrix(12,0,0,-12,336.37117,110.96484)"/>
<use xlink:href="#font_c_3" transform="matrix(12,0,0,-12,341.25386,110.80078)"/>
<use xlink:href="#font_c_50" transform="matrix(12,0,0,-12,344.35346,110.80078)"/>
<use xlink:href="#font_c_52" transform="matrix(12,0,0,-12,353.99415,110.96484)"/>
<use xlink:href="#font_c_51" transform="matrix(12,0,0,-12,359.66017,110.80078)"/>
<use xlink:href="#font_c_56" transform="matrix(12,0,0,-12,366.17579,110.96484)"/>
<use xlink:href="#font_c_57" transform="matrix(12,0,0,-12,370.37504,110.88867)"/>
<use xlink:href="#font_c_48" transform="matrix(12,0,0,-12,374.03916,110.96484)"/>
<use xlink:href="#font_c_55" transform="matrix(12,0,0,-12,378.99803,110.80078)"/>
<use xlink:href="#font_c_3" transform="matrix(12,0,0,-12,382.91786,110.80078)"/>
<use xlink:href="#font_c_4c" transform="matrix(12,0,0,-12,386.2694,110.80078)"/>
<use xlink:href="#font_c_56" transform="matrix(12,0,0,-12,389.83979,110.96484)"/>
<use xlink:href="#font_c_3" transform="matrix(12,0,0,-12,393.92185,110.80078)"/>
<use xlink:href="#font_c_46" transform="matrix(12,0,0,-12,397.332,110.96484)"/>
<use xlink:href="#font_c_4f" transform="matrix(12,0,0,-12,402.60728,110.80078)"/>
<use xlink:href="#font_c_44" transform="matrix(12,0,0,-12,406.01359,110.91211)"/>
<use xlink:href="#font_c_4c" transform="matrix(12,0,0,-12,411.2654,110.80078)"/>
<use xlink:href="#font_c_50" transform="matrix(12,0,0,-12,414.34947,110.80078)"/>
<use xlink:href="#font_c_48" transform="matrix(12,0,0,-12,424.03117,110.96484)"/>
<use xlink:href="#font_c_47" transform="matrix(12,0,0,-12,429.3123,110.96484)"/>
<use xlink:href="#font_c_3" transform="matrix(12,0,0,-12,434.91386,110.80078)"/>
<use xlink:href="#font_c_57" transform="matrix(12,0,0,-12,438.03105,110.88867)"/>
<use xlink:href="#font_c_52" transform="matrix(12,0,0,-12,441.65415,110.96484)"/>
<use xlink:href="#font_c_3" transform="matrix(12,0,0,-12,447.24986,110.80078)"/>
<use xlink:href="#font_c_45" transform="matrix(12,0,0,-12,450.22056,110.96484)"/>
<use xlink:href="#font_c_48" transform="matrix(12,0,0,-12,456.69517,110.96484)"/>
<use xlink:href="#font_c_11" transform="matrix(12,0,0,-12,462.42747,110.96484)"/>
<use xlink:href="#font_c_3" transform="matrix(12,0,0,-12,464.57786,110.80078)"/>
<use xlink:href="#font_c_29" transform="matrix(12,0,0,-12,467.7712,110.80078)"/>
<use xlink:href="#font_c_58" transform="matrix(12,0,0,-12,474.26158,110.96484)"/>
<use xlink:href="#font_c_55" transform="matrix(12,0,0,-12,480.32603,110.80078)"/>
<use xlink:href="#font_c_57" transform="matrix(12,0,0,-12,484.36305,110.88867)"/>
<use xlink:href="#font_c_4b" transform="matrix(12,0,0,-12,487.65803,110.80078)"/>
<use xlink:href="#font_c_48" transform="matrix(12,0,0,-12,494.02717,110.96484)"/>
<use xlink:href="#font_c_55" transform="matrix(12,0,0,-12,498.98603,110.80078)"/>
<use xlink:href="#font_c_50" transform="matrix(12,0,0,-12,503.00547,110.80078)"/>
<use xlink:href="#font_c_52" transform="matrix(12,0,0,-12,512.6461,110.96484)"/>
<use xlink:href="#font_c_55" transform="matrix(12,0,0,-12,518.318,110.80078)"/>
<use xlink:href="#font_c_48" transform="matrix(12,0,0,-12,522.68319,110.96484)"/>
<use xlink:href="#font_c_f" transform="matrix(12,0,0,-12,528.2104,112.79883)"/>
<use xlink:href="#font_c_57" transform="matrix(12,0,0,-12,72.11719,138.48633)"/>
<use xlink:href="#font_c_4b" transform="matrix(12,0,0,-12,75.41217,138.39844)"/>
<use xlink:href="#font_c_48" transform="matrix(12,0,0,-12,81.78131,138.5625)"/>
<symbol id="font_e_30">
<path d="M .34960938 .6621094 L .41064454 .12890625 L .7949219 .6621094 L .95654299 .6621094 L .95654299 .64404299 C .9213867 .64176437 .9007161 .63948568 .89453127 .63720706 C .88378909 .6329753 .87386068 .6245117 .8647461 .6118164 C .85595706 .5991211 .8463542 .57470706 .8359375 .5385742 L .7133789 .118652347 C .70621749 .09423828 .7026367 .075032558 .7026367 .061035158 C .7026367 .048339845 .70703127 .03873698 .7158203 .032226564 C .7281901 .022786459 .7477214 .018066407 .77441409 .018066407 L .7861328 .018066407 L .7817383 0 L .5029297 0 L .5078125 .018066407 L .5209961 .018066407 C .54573568 .018066407 .5646159 .021647135 .5776367 .028808594 C .58772787 .034016927 .5966797 .04378255 .6044922 .05810547 C .6126302 .072753909 .62386068 .10498047 .6381836 .15478516 L .7475586 .5385742 L .36132813 0 L .34179688 0 L .27978517 .5385742 L .1616211 .12890625 C .15152996 .09407552 .14648438 .07063802 .14648438 .05859375 C .14648438 .04654948 .1508789 .037272138 .15966797 .030761719 C .16845703 .024576823 .18977864 .020345053 .22363281 .018066407 L .21826172 0 L 0 0 L .0053710939 .018066407 L .018554688 .018066407 C .05078125 .018066407 .07405599 .026204428 .088378909 .04248047 C .09879557 .05419922 .10970052 .079589847 .12109375 .118652347 L .26513673 .6123047 C .25439454 .6233724 .24414063 .6308594 .234375 .6347656 C .22460938 .6386719 .20654297 .64176437 .18017578 .64404299 L .1850586 .6621094 L .34960938 .6621094 Z "/>
</symbol>
<symbol id="font_e_44">
<path d="M .44580079 .45361329 L .35058595 .122558597 L .33984376 .078125 C .3388672 .07389323 .3383789 .0703125 .3383789 .06738281 C .3383789 .06217448 .3400065 .057617189 .34326173 .053710939 C .34586589 .05078125 .3491211 .049316408 .35302735 .049316408 C .35725913 .049316408 .36279298 .051920576 .3696289 .057128908 C .38232423 .06656901 .3992513 .08610026 .42041017 .115722659 L .43701173 .104003909 C .41455079 .07014974 .3914388 .044270833 .36767579 .026367188 C .34391276 .0087890629 .3219401 0 .3017578 0 C .2877604 0 .277181 .0035807293 .27001954 .0107421879 C .2631836 .017578125 .25976563 .027669272 .25976563 .041015626 C .25976563 .056966146 .26334635 .07796224 .2705078 .104003909 L .28076173 .140625 C .23811849 .08496094 .19889324 .0460612 .16308594 .023925782 C .1373698 .007975261 .11214193 0 .087402347 0 C .06363932 0 .04313151 .009765625 .025878907 .029296875 C .008626302 .049153646 0 .07633463 0 .110839847 C 0 .16259766 .015462239 .21712239 .04638672 .27441407 C .07763672 .33203126 .1171875 .37809245 .16503906 .41259767 C .20247396 .4399414 .23779297 .45361329 .2709961 .45361329 C .29085288 .45361329 .30729167 .44840495 .3203125 .43798829 C .33365885 .42757163 .34375 .410319 .35058595 .38623048 L .36816407 .44189454 L .44580079 .45361329 M .27197267 .42822267 C .2511393 .42822267 .2290039 .41845704 .2055664 .39892579 C .17236328 .3712565 .14274089 .33024089 .11669922 .2758789 C .09098307 .22151692 .078125 .17236328 .078125 .12841797 C .078125 .106282558 .08365885 .08870443 .09472656 .075683597 C .10579427 .06298828 .118489589 .056640626 .1328125 .056640626 C .16829427 .056640626 .20686849 .082845058 .24853516 .1352539 C .30419923 .20491536 .33203126 .2763672 .33203126 .34960938 C .33203126 .37727867 .32666017 .3972982 .31591798 .40966798 C .30517579 .42203776 .29052735 .42822267 .27197267 .42822267 Z "/>
</symbol>
<symbol id="font_e_53">
<path d="M .33154298 .6557617 L .29785157 .54345706 C .33333335 .5851237 .36490885 .6142578 .39257813 .6308594 C .4205729 .64746096 .449056 .6557617 .47802735 .6557617 C .5069987 .6557617 .5317383 .64420577 .5522461 .62109377 C .5727539 .5983073 .5830078 .56852218 .5830078 .5317383 C .5830078 .4601237 .5538737 .38720704 .49560548 .31298829 C .43733726 .23909505 .36946617 .20214844 .2919922 .20214844 C .27571617 .20214844 .26123048 .2039388 .24853516 .20751953 C .23616536 .21110027 .22216797 .21744792 .20654297 .2265625 L .17089844 .10058594 C .16373699 .07584635 .16015625 .059733076 .16015625 .052246095 C .16015625 .045084638 .16194661 .0390625 .16552735 .034179689 C .1694336 .028971354 .17561849 .025065104 .18408203 .022460938 C .19254558 .01953125 .20930989 .018066407 .234375 .018066407 L .22998047 0 L 0 0 L .0048828127 .018066407 C .03515625 .01936849 .055664064 .024576823 .06640625 .033691408 C .076822917 .04280599 .087890628 .06803385 .099609378 .109375 L .22314453 .5371094 C .23063152 .5641276 .234375 .5808919 .234375 .58740237 C .234375 .5961914 .23177083 .60302737 .2265625 .60791018 C .22167969 .61279299 .21402996 .6152344 .20361328 .6152344 C .19417317 .6152344 .18098958 .61409506 .1640625 .6118164 L .1640625 .6308594 L .33154298 .6557617 M .21777344 .26513673 C .23795574 .24104817 .26513673 .2290039 .2993164 .2290039 C .3162435 .2290039 .3334961 .23372396 .35107423 .24316406 C .36865235 .25260417 .3857422 .26660157 .40234376 .28515626 C .41927085 .30371095 .43440757 .32503257 .4477539 .3491211 C .46110026 .37353517 .47298179 .402181 .48339845 .4350586 C .49414063 .4679362 .49951173 .5004883 .49951173 .53271487 C .49951173 .55875656 .4934896 .5786133 .4814453 .59228518 C .46972657 .60628256 .45589195 .61328127 .4399414 .61328127 C .40478517 .61328127 .36995445 .59309896 .33544923 .5527344 C .30126954 .5123698 .27620445 .46516929 .2602539 .4111328 L .21777344 .26513673 Z "/>
</symbol>
<symbol id="font_e_56">
<path d="M .3720703 .45361329 L .34228517 .30371095 L .32421876 .30371095 C .32259117 .34733073 .3133138 .379069 .29638673 .39892579 C .27945964 .41878257 .25846354 .42871095 .23339844 .42871095 C .21321614 .42871095 .19710286 .4231771 .1850586 .41210938 C .17333985 .40104167 .16748047 .3876953 .16748047 .3720703 C .16748047 .36132813 .16975911 .35107423 .1743164 .3413086 C .17919922 .33154298 .18961589 .3178711 .2055664 .30029298 C .24788411 .254069 .27522788 .21923828 .28759767 .19580078 C .29996745 .17236328 .30615235 .15022786 .30615235 .12939453 C .30615235 .09554037 .2919922 .06542969 .26367188 .0390625 C .23567708 .013020833 .20019531 0 .15722656 0 C .13378906 0 .106770839 .005533854 .076171878 .016601563 C .06542969 .020507813 .057128908 .022460938 .05126953 .022460938 C .036621095 .022460938 .025553385 .014973958 .018066407 0 L 0 0 L .029785157 .15820313 L .047851564 .15820313 C .049804689 .10872396 .060058595 .07373047 .07861328 .053222658 C .09716797 .032714845 .122558597 .022460938 .15478516 .022460938 C .17952474 .022460938 .19905599 .029296875 .2133789 .04296875 C .22802735 .056966146 .23535156 .07405599 .23535156 .09423828 C .23535156 .10725912 .23274739 .11930338 .22753906 .1303711 C .21842449 .14990235 .19921875 .17692058 .16992188 .21142578 C .14095052 .24593099 .12223307 .2718099 .11376953 .2890625 C .10563151 .3063151 .1015625 .32356773 .1015625 .3408203 C .1015625 .37239585 .11295573 .39908854 .13574219 .42089845 C .15885417 .44270835 .18847656 .45361329 .22460938 .45361329 C .23502605 .45361329 .24446614 .45279948 .2529297 .45117188 C .25748698 .4501953 .2680664 .4464518 .28466798 .4399414 C .30159507 .4337565 .31282554 .43066407 .31835938 .43066407 C .33235679 .43066407 .34407554 .4383138 .35351563 .45361329 L .3720703 .45361329 Z "/>
</symbol>
<use xlink:href="#font_e_30" transform="matrix(12,0,0,-12,89.26758,138.39844)"/>
<use xlink:href="#font_e_44" transform="matrix(12,0,0,-12,99.93741,138.53907)"/>
<use xlink:href="#font_e_53" transform="matrix(12,0,0,-12,104.33194,140.96485)"/>
<use xlink:href="#font_e_56" transform="matrix(12,0,0,-12,111.54483,138.53907)"/>
<symbol id="font_c_4d">
<path d="M .2211914 .91064456 C .2351888 .91064456 .24707031 .9057617 .25683595 .8959961 C .26660157 .88623049 .27148438 .87434896 .27148438 .86035159 C .27148438 .8466797 .26660157 .83496096 .25683595 .8251953 C .24707031 .8154297 .2351888 .8105469 .2211914 .8105469 C .20751953 .8105469 .19580078 .8154297 .18603516 .8251953 C .17626953 .83496096 .17138672 .8466797 .17138672 .86035159 C .17138672 .87434896 .17626953 .88623049 .18603516 .8959961 C .19580078 .9057617 .20751953 .91064456 .2211914 .91064456 M .2631836 .67626956 L .2631836 .22607422 C .2631836 .14957683 .24690755 .09277344 .21435547 .055664064 C .18180339 .018554688 .13948567 0 .087402347 0 C .05777995 0 .035807294 .0053710939 .021484375 .016113282 C .0071614587 .026855469 0 .037923177 0 .049316408 C 0 .060709638 .0040690104 .07047526 .012207031 .07861328 C .020019532 .086751308 .029296875 .09082031 .040039064 .09082031 C .048502607 .09082031 .057128908 .08870443 .06591797 .084472659 C .07145182 .08219401 .08203125 .07405599 .09765625 .060058595 C .11360677 .045735677 .12695313 .03857422 .13769531 .03857422 C .14550781 .03857422 .15315755 .041666669 .16064453 .047851564 C .16813152 .053710939 .17366536 .063802089 .1772461 .078125 C .18082683 .0921224 .18261719 .12272135 .18261719 .16992188 L .18261719 .48828126 C .18261719 .5374349 .18115235 .56901046 .17822266 .5830078 C .17594402 .59375 .17236328 .6010742 .16748047 .60498049 C .16259766 .6092122 .15592449 .6113281 .14746094 .6113281 C .13834636 .6113281 .12727864 .6088867 .11425781 .6040039 L .107421878 .62158206 L .2421875 .67626956 L .2631836 .67626956 Z "/>
</symbol>
<use xlink:href="#font_c_53" transform="matrix(12,0,0,-12,119.28516,140.96485)"/>
<use xlink:href="#font_c_44" transform="matrix(12,0,0,-12,125.75391,138.50977)"/>
<use xlink:href="#font_c_4a" transform="matrix(12,0,0,-12,131.0116,140.98828)"/>
<use xlink:href="#font_c_48" transform="matrix(12,0,0,-12,137.09949,138.5625)"/>
<use xlink:href="#font_c_3" transform="matrix(12,0,0,-12,141.98218,138.39844)"/>
<use xlink:href="#font_c_56" transform="matrix(12,0,0,-12,145.56812,138.5625)"/>
<use xlink:href="#font_c_4b" transform="matrix(12,0,0,-12,149.72635,138.39844)"/>
<use xlink:href="#font_c_52" transform="matrix(12,0,0,-12,156.05448,138.5625)"/>
<use xlink:href="#font_c_5a" transform="matrix(12,0,0,-12,161.72635,138.5625)"/>
<use xlink:href="#font_c_46" transform="matrix(12,0,0,-12,170.72434,138.5625)"/>
<use xlink:href="#font_c_44" transform="matrix(12,0,0,-12,176.06992,138.50977)"/>
<use xlink:href="#font_c_56" transform="matrix(12,0,0,-12,181.55612,138.5625)"/>
<use xlink:href="#font_c_48" transform="matrix(12,0,0,-12,186.0835,138.5625)"/>
<use xlink:href="#font_c_56" transform="matrix(12,0,0,-12,191.55213,138.5625)"/>
<use xlink:href="#font_c_3" transform="matrix(12,0,0,-12,195.63419,138.39844)"/>
<use xlink:href="#font_c_4d" transform="matrix(12,0,0,-12,197.71427,140.98828)"/>
<use xlink:href="#font_c_58" transform="matrix(12,0,0,-12,201.9819,138.5625)"/>
<use xlink:href="#font_c_56" transform="matrix(12,0,0,-12,208.55612,138.5625)"/>
<use xlink:href="#font_c_57" transform="matrix(12,0,0,-12,212.75537,138.48633)"/>
<use xlink:href="#font_c_3" transform="matrix(12,0,0,-12,215.97418,138.39844)"/>
<use xlink:href="#font_c_4b" transform="matrix(12,0,0,-12,219.05036,138.39844)"/>
<use xlink:href="#font_c_52" transform="matrix(12,0,0,-12,225.37848,138.5625)"/>
<use xlink:href="#font_c_5a" transform="matrix(12,0,0,-12,231.05036,138.5625)"/>
<use xlink:href="#font_c_3" transform="matrix(12,0,0,-12,239.63819,138.39844)"/>
<use xlink:href="#font_c_49" transform="matrix(12,0,0,-12,243.10108,138.39844)"/>
<use xlink:href="#font_c_44" transform="matrix(12,0,0,-12,247.06192,138.50977)"/>
<use xlink:href="#font_c_55" transform="matrix(12,0,0,-12,252.03836,138.39844)"/>
<use xlink:href="#font_c_3" transform="matrix(12,0,0,-12,255.95819,138.39844)"/>
<use xlink:href="#font_c_57" transform="matrix(12,0,0,-12,259.07539,138.48633)"/>
<use xlink:href="#font_c_4b" transform="matrix(12,0,0,-12,262.37037,138.39844)"/>
<use xlink:href="#font_c_4c" transform="matrix(12,0,0,-12,268.64576,138.39844)"/>
<use xlink:href="#font_c_56" transform="matrix(12,0,0,-12,272.21614,138.5625)"/>
<use xlink:href="#font_c_3" transform="matrix(12,0,0,-12,276.2982,138.39844)"/>
<use xlink:href="#font_c_4c" transform="matrix(12,0,0,-12,279.64976,138.39844)"/>
<use xlink:href="#font_c_47" transform="matrix(12,0,0,-12,283.03263,138.5625)"/>
<use xlink:href="#font_c_48" transform="matrix(12,0,0,-12,289.0795,138.5625)"/>
<use xlink:href="#font_c_44" transform="matrix(12,0,0,-12,294.38993,138.50977)"/>
<use xlink:href="#font_c_3" transform="matrix(12,0,0,-12,299.2902,138.39844)"/>
<use xlink:href="#font_c_56" transform="matrix(12,0,0,-12,302.87614,138.5625)"/>
<use xlink:href="#font_c_53" transform="matrix(12,0,0,-12,306.91719,140.96485)"/>
<use xlink:href="#font_c_55" transform="matrix(12,0,0,-12,313.03437,138.39844)"/>
<use xlink:href="#font_c_48" transform="matrix(12,0,0,-12,317.3995,138.5625)"/>
<use xlink:href="#font_c_44" transform="matrix(12,0,0,-12,322.70994,138.50977)"/>
<use xlink:href="#font_c_47" transform="matrix(12,0,0,-12,328.00865,138.5625)"/>
<use xlink:href="#font_c_44" transform="matrix(12,0,0,-12,337.0254,138.50977)"/>
<use xlink:href="#font_c_56" transform="matrix(12,0,0,-12,342.5116,138.5625)"/>
<use xlink:href="#font_c_3" transform="matrix(12,0,0,-12,346.59367,138.39844)"/>
<use xlink:href="#font_c_52" transform="matrix(12,0,0,-12,349.99797,138.5625)"/>
<use xlink:href="#font_c_57" transform="matrix(12,0,0,-12,355.71086,138.48633)"/>
<use xlink:href="#font_c_4b" transform="matrix(12,0,0,-12,359.00584,138.39844)"/>
<use xlink:href="#font_c_48" transform="matrix(12,0,0,-12,365.37498,138.5625)"/>
<use xlink:href="#font_c_55" transform="matrix(12,0,0,-12,370.33384,138.39844)"/>
<use xlink:href="#font_c_3" transform="matrix(12,0,0,-12,374.25367,138.39844)"/>
<use xlink:href="#font_c_53" transform="matrix(12,0,0,-12,377.21266,140.96485)"/>
<use xlink:href="#font_c_48" transform="matrix(12,0,0,-12,383.69898,138.5625)"/>
<use xlink:href="#font_c_52" transform="matrix(12,0,0,-12,388.98597,138.5625)"/>
<use xlink:href="#font_c_53" transform="matrix(12,0,0,-12,394.54066,140.96485)"/>
<use xlink:href="#font_c_4f" transform="matrix(12,0,0,-12,400.9391,138.39844)"/>
<use xlink:href="#font_c_48" transform="matrix(12,0,0,-12,404.36299,138.5625)"/>
<use xlink:href="#font_c_56" transform="matrix(12,0,0,-12,409.8316,138.5625)"/>
<use xlink:href="#font_c_3" transform="matrix(12,0,0,-12,413.91368,138.39844)"/>
<use xlink:href="#font_c_44" transform="matrix(12,0,0,-12,417.3414,138.50977)"/>
<use xlink:href="#font_c_51" transform="matrix(12,0,0,-12,422.31199,138.39844)"/>
<use xlink:href="#font_c_47" transform="matrix(12,0,0,-12,428.6401,138.5625)"/>
<use xlink:href="#font_c_3" transform="matrix(12,0,0,-12,434.24168,138.39844)"/>
<use xlink:href="#font_c_46" transform="matrix(12,0,0,-12,437.65184,138.5625)"/>
<use xlink:href="#font_c_58" transform="matrix(12,0,0,-12,442.5814,138.5625)"/>
<use xlink:href="#font_c_4f" transform="matrix(12,0,0,-12,448.9271,138.39844)"/>
<use xlink:href="#font_c_57" transform="matrix(12,0,0,-12,452.02287,138.48633)"/>
<use xlink:href="#font_c_58" transform="matrix(12,0,0,-12,455.2534,138.5625)"/>
<use xlink:href="#font_c_55" transform="matrix(12,0,0,-12,461.31785,138.39844)"/>
<use xlink:href="#font_c_48" transform="matrix(12,0,0,-12,465.68299,138.5625)"/>
<use xlink:href="#font_c_56" transform="matrix(12,0,0,-12,471.1516,138.5625)"/>
<use xlink:href="#font_c_3" transform="matrix(12,0,0,-12,475.23368,138.39844)"/>
<use xlink:href="#font_c_49" transform="matrix(12,0,0,-12,478.69657,138.39844)"/>
<use xlink:href="#font_c_52" transform="matrix(12,0,0,-12,482.63398,138.5625)"/>
<use xlink:href="#font_c_58" transform="matrix(12,0,0,-12,488.2414,138.5625)"/>
<use xlink:href="#font_c_51" transform="matrix(12,0,0,-12,494.3,138.39844)"/>
<use xlink:href="#font_c_47" transform="matrix(12,0,0,-12,500.6281,138.5625)"/>
<use xlink:href="#font_c_46" transform="matrix(12,0,0,-12,72.41016,166.16016)"/>
<use xlink:href="#font_c_52" transform="matrix(12,0,0,-12,77.7323,166.16016)"/>
<use xlink:href="#font_c_50" transform="matrix(12,0,0,-12,83.42761,165.9961)"/>
<use xlink:href="#font_c_49" transform="matrix(12,0,0,-12,93.12689,165.9961)"/>
<use xlink:href="#font_c_52" transform="matrix(12,0,0,-12,97.0643,166.16016)"/>
<use xlink:href="#font_c_55" transform="matrix(12,0,0,-12,102.736179,165.9961)"/>
<use xlink:href="#font_c_57" transform="matrix(12,0,0,-12,106.773189,166.08399)"/>
<use xlink:href="#font_c_3" transform="matrix(12,0,0,-12,109.992008,165.9961)"/>
<use xlink:href="#font_c_4c" transform="matrix(12,0,0,-12,113.34357,165.9961)"/>
<use xlink:href="#font_c_51" transform="matrix(12,0,0,-12,116.398319,165.9961)"/>
<use xlink:href="#font_c_3" transform="matrix(12,0,0,-12,122.328,165.9961)"/>
<use xlink:href="#font_c_57" transform="matrix(12,0,0,-12,125.44519,166.08399)"/>
<use xlink:href="#font_c_4b" transform="matrix(12,0,0,-12,128.74018,165.9961)"/>
<use xlink:href="#font_c_48" transform="matrix(12,0,0,-12,135.10932,166.16016)"/>
<use xlink:href="#font_c_3" transform="matrix(12,0,0,-12,139.992,165.9961)"/>
<use xlink:href="#font_c_48" transform="matrix(12,0,0,-12,143.43732,166.16016)"/>
<use xlink:href="#font_c_5b" transform="matrix(12,0,0,-12,148.47821,165.9961)"/>
<use xlink:href="#font_c_53" transform="matrix(12,0,0,-12,154.27899,168.5625)"/>
<use xlink:href="#font_c_4f" transform="matrix(12,0,0,-12,160.67743,165.9961)"/>
<use xlink:href="#font_c_44" transform="matrix(12,0,0,-12,164.08374,166.10742)"/>
<use xlink:href="#font_c_51" transform="matrix(12,0,0,-12,169.05432,165.9961)"/>
<use xlink:href="#font_c_44" transform="matrix(12,0,0,-12,175.41175,166.10742)"/>
<use xlink:href="#font_c_57" transform="matrix(12,0,0,-12,180.4292,166.08399)"/>
<use xlink:href="#font_c_4c" transform="matrix(12,0,0,-12,183.99958,165.9961)"/>
<use xlink:href="#font_c_52" transform="matrix(12,0,0,-12,187.3883,166.16016)"/>
<use xlink:href="#font_c_51" transform="matrix(12,0,0,-12,193.05432,165.9961)"/>
<use xlink:href="#font_c_3" transform="matrix(12,0,0,-12,198.98401,165.9961)"/>
<use xlink:href="#font_c_57" transform="matrix(12,0,0,-12,202.1012,166.08399)"/>
<use xlink:href="#font_c_4b" transform="matrix(12,0,0,-12,205.39618,165.9961)"/>
<use xlink:href="#font_c_44" transform="matrix(12,0,0,-12,211.74774,166.10742)"/>
<use xlink:href="#font_c_57" transform="matrix(12,0,0,-12,216.7652,166.08399)"/>
<use xlink:href="#font_c_3" transform="matrix(12,0,0,-12,219.98401,165.9961)"/>
<use xlink:href="#font_c_57" transform="matrix(12,0,0,-12,223.1012,166.08399)"/>
<use xlink:href="#font_c_4b" transform="matrix(12,0,0,-12,226.39618,165.9961)"/>
<use xlink:href="#font_c_48" transform="matrix(12,0,0,-12,232.76532,166.16016)"/>
<use xlink:href="#font_c_3" transform="matrix(12,0,0,-12,237.64801,165.9961)"/>
<use xlink:href="#font_c_26" transform="matrix(12,0,0,-12,241.0816,166.17774)"/>
<use xlink:href="#font_c_4b" transform="matrix(12,0,0,-12,248.72818,165.9961)"/>
<use xlink:href="#font_c_58" transform="matrix(12,0,0,-12,254.66373,166.16016)"/>
<use xlink:href="#font_c_53" transform="matrix(12,0,0,-12,260.611,168.5625)"/>
<use xlink:href="#font_c_44" transform="matrix(12,0,0,-12,267.07975,166.10742)"/>
<use xlink:href="#font_c_46" transform="matrix(12,0,0,-12,272.39018,166.16016)"/>
<use xlink:href="#font_c_44" transform="matrix(12,0,0,-12,277.73576,166.10742)"/>
<use xlink:href="#font_c_45" transform="matrix(12,0,0,-12,282.60673,166.16016)"/>
<use xlink:href="#font_c_55" transform="matrix(12,0,0,-12,288.7122,165.9961)"/>
<use xlink:href="#font_c_44" transform="matrix(12,0,0,-12,293.05976,166.10742)"/>
<use xlink:href="#font_c_3" transform="matrix(12,0,0,-12,297.96003,165.9961)"/>
<use xlink:href="#font_c_53" transform="matrix(12,0,0,-12,300.919,168.5625)"/>
<use xlink:href="#font_c_55" transform="matrix(12,0,0,-12,307.0362,165.9961)"/>
<use xlink:href="#font_c_52" transform="matrix(12,0,0,-12,311.36033,166.16016)"/>
<use xlink:href="#font_c_59" transform="matrix(12,0,0,-12,317.05564,166.16016)"/>
<use xlink:href="#font_c_4c" transform="matrix(12,0,0,-12,323.3076,165.9961)"/>
<use xlink:href="#font_c_47" transform="matrix(12,0,0,-12,326.69047,166.16016)"/>
<use xlink:href="#font_c_48" transform="matrix(12,0,0,-12,332.73735,166.16016)"/>
<use xlink:href="#font_c_47" transform="matrix(12,0,0,-12,338.01847,166.16016)"/>
<use xlink:href="#font_c_57" transform="matrix(12,0,0,-12,346.69337,166.08399)"/>
<use xlink:href="#font_c_52" transform="matrix(12,0,0,-12,350.31648,166.16016)"/>
<use xlink:href="#font_c_3" transform="matrix(12,0,0,-12,355.91218,165.9961)"/>
<use xlink:href="#font_c_48" transform="matrix(12,0,0,-12,359.35749,166.16016)"/>
<use xlink:href="#font_c_59" transform="matrix(12,0,0,-12,364.33979,166.16016)"/>
<use xlink:href="#font_c_48" transform="matrix(12,0,0,-12,370.6855,166.16016)"/>
<use xlink:href="#font_c_51" transform="matrix(12,0,0,-12,375.6385,165.9961)"/>
<use xlink:href="#font_c_57" transform="matrix(12,0,0,-12,381.68537,166.08399)"/>
<use xlink:href="#font_c_56" transform="matrix(12,0,0,-12,385.4901,166.16016)"/>
<use xlink:href="#font_c_3" transform="matrix(12,0,0,-12,389.57218,165.9961)"/>
<use xlink:href="#font_c_57" transform="matrix(12,0,0,-12,392.68937,166.08399)"/>
<use xlink:href="#font_c_4b" transform="matrix(12,0,0,-12,395.98435,165.9961)"/>
<use xlink:href="#font_c_44" transform="matrix(12,0,0,-12,402.3359,166.10742)"/>
<use xlink:href="#font_c_57" transform="matrix(12,0,0,-12,407.35337,166.08399)"/>
<use xlink:href="#font_c_3" transform="matrix(12,0,0,-12,410.57218,165.9961)"/>
<use xlink:href="#font_c_46" transform="matrix(12,0,0,-12,413.98234,166.16016)"/>
<use xlink:href="#font_c_52" transform="matrix(12,0,0,-12,419.30448,166.16016)"/>
<use xlink:href="#font_c_58" transform="matrix(12,0,0,-12,424.9119,166.16016)"/>
<use xlink:href="#font_c_4f" transform="matrix(12,0,0,-12,431.2576,165.9961)"/>
<use xlink:href="#font_c_47" transform="matrix(12,0,0,-12,434.6346,166.16016)"/>
<use xlink:href="#font_c_3" transform="matrix(12,0,0,-12,440.23619,165.9961)"/>
<use xlink:href="#font_c_52" transform="matrix(12,0,0,-12,443.64048,166.16016)"/>
<use xlink:href="#font_c_57" transform="matrix(12,0,0,-12,449.35337,166.08399)"/>
<use xlink:href="#font_c_4b" transform="matrix(12,0,0,-12,452.64836,165.9961)"/>
<use xlink:href="#font_c_48" transform="matrix(12,0,0,-12,459.0175,166.16016)"/>
<use xlink:href="#font_c_55" transform="matrix(12,0,0,-12,463.97636,165.9961)"/>
<use xlink:href="#font_c_5a" transform="matrix(12,0,0,-12,467.97236,166.16016)"/>
<use xlink:href="#font_c_4c" transform="matrix(12,0,0,-12,476.91175,165.9961)"/>
<use xlink:href="#font_c_56" transform="matrix(12,0,0,-12,480.48213,166.16016)"/>
<use xlink:href="#font_c_48" transform="matrix(12,0,0,-12,485.0095,166.16016)"/>
<use xlink:href="#font_c_3" transform="matrix(12,0,0,-12,489.89219,165.9961)"/>
<use xlink:href="#font_c_51" transform="matrix(12,0,0,-12,492.9625,165.9961)"/>
<use xlink:href="#font_c_52" transform="matrix(12,0,0,-12,499.29649,166.16016)"/>
<use xlink:href="#font_c_57" transform="matrix(12,0,0,-12,505.00938,166.08399)"/>
<use xlink:href="#font_c_3" transform="matrix(12,0,0,-12,508.22819,165.9961)"/>
<use xlink:href="#font_c_45" transform="matrix(12,0,0,-12,511.19889,166.16016)"/>
<use xlink:href="#font_c_48" transform="matrix(12,0,0,-12,517.67349,166.16016)"/>
<use xlink:href="#font_c_48" transform="matrix(12,0,0,-12,72.44531,193.75782)"/>
<use xlink:href="#font_c_5b" transform="matrix(12,0,0,-12,77.486209,193.59375)"/>
<use xlink:href="#font_c_53" transform="matrix(12,0,0,-12,83.28699,196.16016)"/>
<use xlink:href="#font_c_4f" transform="matrix(12,0,0,-12,89.685428,193.59375)"/>
<use xlink:href="#font_c_44" transform="matrix(12,0,0,-12,93.091739,193.70508)"/>
<use xlink:href="#font_c_4c" transform="matrix(12,0,0,-12,98.34357,193.59375)"/>
<use xlink:href="#font_c_51" transform="matrix(12,0,0,-12,101.398319,193.59375)"/>
<use xlink:href="#font_c_48" transform="matrix(12,0,0,-12,107.773319,193.75782)"/>
<use xlink:href="#font_c_47" transform="matrix(12,0,0,-12,113.05444,193.75782)"/>
<use xlink:href="#font_c_11" transform="matrix(12,0,0,-12,119.505619,193.75782)"/>
</g>
</g>
</svg>
